<svg width="32" height="32" viewBox="0 0 32 32" fill="none" xmlns="http://www.w3.org/2000/svg">
<path fill-rule="evenodd" clip-rule="evenodd" d="M26.6665 10.6667V6.66667H23.9998V8H21.3332V6.66667H10.6665V8H7.99984V6.66667H5.33317V10.6667H26.6665ZM26.6665 13.3333H5.33317V26.6667H26.6665V13.3333ZM23.9998 4.00001H26.6665C28.1393 4.00001 29.3332 5.19391 29.3332 6.66667V26.6667C29.3332 28.1394 28.1393 29.3333 26.6665 29.3333H5.33317C3.86041 29.3333 2.6665 28.1394 2.6665 26.6667V6.66667C2.6665 5.19391 3.86041 4.00001 5.33317 4.00001H7.99984V2.66667H10.6665V4.00001H21.3332V2.66667H23.9998V4.00001Z" fill="black"/>
</svg>
