<svg width="42" height="42" viewBox="0 0 42 42" fill="none" xmlns="http://www.w3.org/2000/svg">
<path fill-rule="evenodd" clip-rule="evenodd" d="M12.5362 0C5.61267 0 0 5.61267 0 12.5362V29.2512C0 36.1748 5.61267 41.7875 12.5362 41.7875H29.2512C36.1748 41.7875 41.7875 36.1748 41.7875 29.2512V12.5362C41.7875 5.61267 36.1748 0 29.2512 0H12.5362ZM15.3553 29.486C13.2259 32.2714 11.0809 35.0771 11.218 35.2357C11.4833 35.5442 27.2326 24.6214 27.3146 23.5685C27.3646 22.9397 24.6532 21.0704 22.4394 19.5442C20.9485 18.5163 19.6832 17.644 19.639 17.4109C20.0375 17.4109 20.4601 17.4732 20.9142 17.5401C21.4415 17.6178 22.0113 17.7018 22.6349 17.7018C24.7602 15.0907 30.602 7.05201 30.3859 6.73081C30.1419 6.37008 14.2487 17.3721 14.2876 18.3975C14.3089 18.9846 16.9016 20.7906 19.1225 22.3378C20.7792 23.4918 22.2291 24.5018 22.2507 24.7544C22.2612 24.8766 21.5718 24.7336 20.8401 24.5817C20.0616 24.4202 19.2352 24.2487 19.1526 24.3761C18.5432 25.3161 16.9536 27.3953 15.3553 29.486Z" fill="white"/>
</svg>
