<svg width="135" height="47" viewBox="0 0 135 47" fill="none" xmlns="http://www.w3.org/2000/svg">
<path opacity="0.5" d="M31.7862 12H33.0167V8.47949H35.5049C37.3575 8.47949 38.67 7.17383 38.67 5.30078V5.28711C38.67 3.41406 37.3575 2.13574 35.5049 2.13574H31.7862V12ZM35.1905 3.22949C36.5987 3.22949 37.4122 4.00195 37.4122 5.30078V5.31445C37.4122 6.61328 36.5987 7.38574 35.1905 7.38574H33.0167V3.22949H35.1905ZM42.9514 12.1299C45.0501 12.1299 46.3489 10.6807 46.3489 8.32227V8.30859C46.3489 5.94336 45.0501 4.50098 42.9514 4.50098C40.8528 4.50098 39.554 5.94336 39.554 8.30859V8.32227C39.554 10.6807 40.8528 12.1299 42.9514 12.1299ZM42.9514 11.0771C41.5569 11.0771 40.7708 10.0586 40.7708 8.32227V8.30859C40.7708 6.56543 41.5569 5.55371 42.9514 5.55371C44.346 5.55371 45.1321 6.56543 45.1321 8.30859V8.32227C45.1321 10.0586 44.346 11.0771 42.9514 11.0771ZM48.935 12H50.1245L51.7651 6.29883H51.8745L53.522 12H54.7182L56.7827 4.63086H55.6001L54.1509 10.5234H54.0415L52.394 4.63086H51.2661L49.6186 10.5234H49.5093L48.06 4.63086H46.8706L48.935 12ZM60.6813 12.1299C62.4177 12.1299 63.4704 11.1455 63.7233 10.1475L63.737 10.0928H62.5475L62.5202 10.1543C62.322 10.5986 61.7067 11.0703 60.7087 11.0703C59.3962 11.0703 58.5554 10.1816 58.5212 8.65723H63.8259V8.19238C63.8259 5.99121 62.6091 4.50098 60.6061 4.50098C58.6032 4.50098 57.3044 6.05957 57.3044 8.33594V8.34277C57.3044 10.6533 58.5759 12.1299 60.6813 12.1299ZM60.5993 5.56055C61.6862 5.56055 62.4929 6.25098 62.6159 7.70703H58.5417C58.6716 6.30566 59.5056 5.56055 60.5993 5.56055ZM65.2636 12H66.453V7.43359C66.453 6.35352 67.2597 5.63574 68.3944 5.63574C68.6542 5.63574 68.8798 5.66309 69.1259 5.7041V4.54883C69.0097 4.52832 68.7567 4.50098 68.5311 4.50098C67.5331 4.50098 66.8427 4.95215 66.5624 5.72461H66.453V4.63086H65.2636V12ZM72.9903 12.1299C74.7267 12.1299 75.7794 11.1455 76.0323 10.1475L76.046 10.0928H74.8565L74.8292 10.1543C74.631 10.5986 74.0157 11.0703 73.0177 11.0703C71.7052 11.0703 70.8644 10.1816 70.8302 8.65723H76.1349V8.19238C76.1349 5.99121 74.9181 4.50098 72.9151 4.50098C70.9122 4.50098 69.6134 6.05957 69.6134 8.33594V8.34277C69.6134 10.6533 70.8849 12.1299 72.9903 12.1299ZM72.9083 5.56055C73.9952 5.56055 74.8019 6.25098 74.9249 7.70703H70.8507C70.9806 6.30566 71.8146 5.56055 72.9083 5.56055ZM80.2933 12.1299C81.3187 12.1299 82.139 11.6445 82.5901 10.8242H82.6995V12H83.889V1.70508H82.6995V5.79297H82.5901C82.1868 5.00684 81.305 4.50098 80.2933 4.50098C78.4202 4.50098 77.2034 5.99805 77.2034 8.30859V8.32227C77.2034 10.6191 78.4271 12.1299 80.2933 12.1299ZM80.5667 11.0771C79.22 11.0771 78.4202 10.0381 78.4202 8.32227V8.30859C78.4202 6.59277 79.22 5.55371 80.5667 5.55371C81.9066 5.55371 82.7269 6.60645 82.7269 8.30859V8.32227C82.7269 10.0244 81.9066 11.0771 80.5667 11.0771ZM92.9577 12.1299C94.824 12.1299 96.0476 10.6191 96.0476 8.32227V8.30859C96.0476 5.99805 94.8308 4.50098 92.9577 4.50098C91.946 4.50098 91.0642 5.00684 90.6609 5.79297H90.5515V1.70508H89.362V12H90.5515V10.8242H90.6609C91.112 11.6445 91.9324 12.1299 92.9577 12.1299ZM92.6843 11.0771C91.3445 11.0771 90.5241 10.0244 90.5241 8.32227V8.30859C90.5241 6.60645 91.3445 5.55371 92.6843 5.55371C94.031 5.55371 94.8308 6.59277 94.8308 8.30859V8.32227C94.8308 10.0381 94.031 11.0771 92.6843 11.0771ZM97.8408 14.584C99.1464 14.584 99.7548 14.1055 100.363 12.4512L103.241 4.63086H101.99L99.9736 10.6943H99.8642L97.8408 4.63086H96.5693L99.2968 12.0068L99.1601 12.4443C98.8935 13.292 98.4833 13.5996 97.8066 13.5996C97.6425 13.5996 97.4579 13.5928 97.3144 13.5654V14.543C97.4785 14.5703 97.6835 14.584 97.8408 14.584Z" fill="black"/>
<path d="M45.691 41.4136C47.3921 41.4136 48.7828 41.0022 49.8631 40.1918C50.9433 39.3814 51.4772 38.3466 51.4772 37.0874C51.4772 36.4889 51.3779 35.9653 51.1792 35.5165C50.9806 35.0676 50.6826 34.7061 50.2852 34.4193C49.8879 34.1326 49.4906 33.9082 49.0932 33.7336C48.6959 33.5591 48.1992 33.3845 47.6032 33.2224L44.6108 32.3871C44.1141 32.2126 43.8658 31.9507 43.8658 31.6141C43.8658 31.3772 44.0024 31.1902 44.2755 31.0406C44.5487 30.891 44.8715 30.8162 45.244 30.8162C46.225 30.8162 47.0072 31.2276 47.5908 32.038L51.1544 31.0157C50.7322 29.9933 49.9996 29.183 48.9442 28.5845C47.8888 27.9861 46.672 27.6869 45.2813 27.6869C43.8037 27.6869 42.5372 28.0733 41.4818 28.8463C40.4264 29.6193 39.8925 30.5793 39.8925 31.7139C39.8925 33.4718 40.9851 34.6811 43.1705 35.3419L46.2746 36.2645C47.0817 36.5014 47.4915 36.838 47.4915 37.2619C47.4915 37.5237 47.3425 37.7482 47.0445 37.9352C46.7465 38.1222 46.3491 38.2219 45.8649 38.2219C45.1323 38.2219 44.499 38.0474 43.9775 37.6983C43.456 37.3492 43.0835 36.8879 42.86 36.3269L39.2344 37.3991C39.5696 38.5087 40.3395 39.4562 41.5315 40.2541C42.7235 41.052 44.1141 41.451 45.7159 41.451L45.691 41.4136Z" fill="black"/>
<path d="M52.9672 41.052H57.0399V22.4131H52.9672V41.052Z" fill="black"/>
<path d="M65.4956 41.4136C67.5072 41.4136 69.171 40.7528 70.4872 39.4437C71.8033 38.1346 72.4614 36.5014 72.4614 34.544C72.4614 32.5866 71.8033 30.9533 70.4872 29.6443C69.171 28.3352 67.5072 27.6869 65.4956 27.6869C63.4841 27.6869 61.8203 28.3476 60.5041 29.6567C59.188 30.9658 58.5299 32.5991 58.5299 34.5565C58.5299 36.5139 59.188 38.1471 60.5041 39.4562C61.8203 40.7653 63.4841 41.4261 65.4956 41.4261V41.4136ZM65.4956 37.7482C64.5768 37.7482 63.8442 37.4489 63.2979 36.8505C62.7516 36.252 62.4784 35.4915 62.4784 34.5565C62.4784 33.6214 62.7516 32.8609 63.2979 32.2624C63.8442 31.664 64.5768 31.3648 65.4956 31.3648C66.4145 31.3648 67.1471 31.664 67.6934 32.2624C68.2397 32.8609 68.5129 33.6214 68.5129 34.5565C68.5129 35.4915 68.2397 36.2645 67.6934 36.863C67.1471 37.4614 66.4145 37.7606 65.4956 37.7606V37.7482Z" fill="black"/>
<path d="M81.1034 37.3741C80.6812 37.5985 80.2218 37.7107 79.7252 37.7107C78.8312 37.7107 78.3842 37.2619 78.3842 36.3518V31.6017H81.8732V28.0359H78.3842V23.9466H74.3115V28.0359H72.3V31.6017H74.3115V36.3518C74.3115 37.8853 74.6964 39.0822 75.4662 39.9549C76.2361 40.8276 77.3784 41.264 78.9057 41.264C79.9611 41.264 81.0165 41.052 82.0843 40.6282L81.1034 37.3741Z" fill="black"/>
<path d="M88.5783 41.4136C90.2793 41.4136 91.67 41.0022 92.7503 40.1918C93.8305 39.3814 94.3644 38.3466 94.3644 37.0874C94.3644 36.4889 94.2651 35.9653 94.0664 35.5165C93.8678 35.0676 93.5698 34.7061 93.1724 34.4193C92.7751 34.1326 92.3778 33.9082 91.9804 33.7336C91.5831 33.5591 91.0864 33.3845 90.4904 33.2224L87.498 32.3871C87.0013 32.2126 86.753 31.9507 86.753 31.6141C86.753 31.3772 86.8896 31.1902 87.1628 31.0406C87.4359 30.891 87.7588 30.8162 88.1313 30.8162C89.1122 30.8162 89.8944 31.2276 90.478 32.038L94.0416 31.0157C93.6194 29.9933 92.8868 29.183 91.8314 28.5845C90.776 27.9861 89.5592 27.6869 88.1685 27.6869C86.6909 27.6869 85.4244 28.0733 84.369 28.8463C83.3136 29.6193 82.7797 30.5793 82.7797 31.7139C82.7797 33.4718 83.8723 34.6811 86.0577 35.3419L89.1618 36.2645C89.9689 36.5014 90.3787 36.838 90.3787 37.2619C90.3787 37.5237 90.2297 37.7482 89.9317 37.9352C89.6337 38.1222 89.2363 38.2219 88.7521 38.2219C88.0195 38.2219 87.3862 38.0474 86.8647 37.6983C86.3433 37.3492 85.9707 36.8879 85.7472 36.3269L82.1216 37.3991C82.4568 38.5087 83.2267 39.4562 84.4187 40.2541C85.6107 41.052 87.0013 41.451 88.6031 41.451L88.5783 41.4136Z" fill="black"/>
<path d="M103.665 27.6744C102.125 27.6744 100.883 28.198 99.9271 29.2328V28.0359H95.8544V46.4131H99.9271V39.8552C100.908 40.89 102.15 41.4136 103.652 41.4136C105.415 41.4136 106.905 40.7528 108.122 39.4437C109.339 38.1346 109.947 36.5014 109.947 34.544C109.947 32.5866 109.339 30.9533 108.122 29.6443C106.905 28.3352 105.415 27.6869 103.652 27.6869L103.665 27.6744ZM102.907 37.798C102.001 37.798 101.256 37.4988 100.672 36.9004C100.089 36.3019 99.7905 35.5165 99.7905 34.544C99.7905 33.584 100.076 32.811 100.66 32.2126C101.243 31.6141 101.988 31.3149 102.895 31.3149C103.776 31.3149 104.496 31.6141 105.068 32.2126C105.639 32.811 105.924 33.584 105.924 34.544C105.924 35.504 105.639 36.2894 105.068 36.9004C104.496 37.5113 103.776 37.8105 102.895 37.8105L102.907 37.798Z" fill="black"/>
<path d="M117.646 41.4136C119.657 41.4136 121.321 40.7528 122.637 39.4437C123.953 38.1346 124.611 36.5014 124.611 34.544C124.611 32.5866 123.953 30.9533 122.637 29.6443C121.321 28.3352 119.657 27.6869 117.646 27.6869C115.634 27.6869 113.97 28.3476 112.654 29.6567C111.338 30.9658 110.68 32.5991 110.68 34.5565C110.68 36.5139 111.338 38.1471 112.654 39.4562C113.97 40.7653 115.634 41.4261 117.646 41.4261V41.4136ZM117.646 37.7482C116.727 37.7482 115.994 37.4489 115.448 36.8505C114.902 36.252 114.628 35.4915 114.628 34.5565C114.628 33.6214 114.902 32.8609 115.448 32.2624C115.994 31.664 116.727 31.3648 117.646 31.3648C118.565 31.3648 119.297 31.664 119.843 32.2624C120.39 32.8609 120.663 33.6214 120.663 34.5565C120.663 35.4915 120.39 36.2645 119.843 36.863C119.297 37.4614 118.565 37.7606 117.646 37.7606V37.7482Z" fill="black"/>
<path d="M133.253 37.3741C132.831 37.5985 132.372 37.7107 131.875 37.7107C130.981 37.7107 130.534 37.2619 130.534 36.3518V31.6017H134.023V28.0359H130.534V23.9466H126.462V28.0359H124.45V31.6017H126.462V36.3518C126.462 37.8853 126.846 39.0822 127.616 39.9549C128.386 40.8276 129.528 41.264 131.056 41.264C132.111 41.264 133.167 41.052 134.234 40.6282L133.253 37.3741Z" fill="black"/>
<path fill-rule="evenodd" clip-rule="evenodd" d="M8.59597 18C3.84855 18 0 21.8485 0 26.596V38.0573C0 42.8047 3.84855 46.6532 8.59597 46.6532H20.0573C24.8047 46.6532 28.6532 42.8047 28.6532 38.0573V26.596C28.6532 21.8485 24.8047 18 20.0573 18H8.59597ZM10.529 38.2183C9.06884 40.1282 7.59808 42.052 7.69205 42.1608C7.87394 42.3723 18.6731 34.8827 18.7293 34.1607C18.7636 33.7295 16.9045 32.4478 15.3864 31.4013C14.3641 30.6965 13.4966 30.0984 13.4662 29.9385C13.7395 29.9385 14.0293 29.9812 14.3407 30.0271C14.7022 30.0804 15.0929 30.1379 15.5205 30.1379C16.9778 28.3475 20.9835 22.8355 20.8353 22.6153C20.668 22.3679 9.77017 29.9119 9.79685 30.615C9.81147 31.0176 11.5892 32.256 13.1121 33.3168C14.2481 34.1081 15.2422 34.8007 15.2571 34.9739C15.2643 35.0577 14.7916 34.9596 14.2898 34.8555C13.756 34.7447 13.1894 34.6271 13.1327 34.7145C12.7149 35.359 11.6249 36.7847 10.529 38.2183Z" fill="black"/>
</svg>
