<svg width="90" height="214" viewBox="0 0 90 214" fill="none" xmlns="http://www.w3.org/2000/svg">
<path d="M70.3591 15.6049C69.9501 12.5303 67.7011 9.86557 64.9409 8.32824C62.283 6.68842 59.1139 5.971 56.0471 5.45855C53.5936 4.94611 50.9356 4.53615 48.6866 5.76602C47.4599 6.48344 46.5398 7.50833 45.6197 8.73819C41.0195 14.8875 38.1571 22.2667 35.3969 29.5434C46.1309 35.3853 58.5005 38.05 70.6657 37.1276C71.4836 33.028 71.8925 28.826 71.9947 24.6239C71.9947 20.6269 71.688 16.5273 69.439 13.2477C67.3944 10.2755 64.1231 8.43072 60.7496 7.50833C57.376 6.58593 53.798 6.48344 50.22 6.27846L70.2568 15.7074L70.3591 15.6049Z" fill="#363644"/>
<path d="M39.2816 86.5271C36.7259 86.2197 34.1702 86.0147 31.7167 86.0147C29.2632 86.0147 26.6052 86.3222 24.6629 87.8595C22.925 89.2943 22.1072 91.5491 21.3916 93.8038C19.9604 98.6208 18.7336 103.54 17.7114 108.46C17.2002 110.817 16.8935 113.482 18.3247 115.429C19.4492 116.966 21.4938 117.581 23.3339 118.094L31.1033 120.348C32.1256 120.656 33.2501 120.861 34.0679 120.348C34.4768 120.041 34.7835 119.426 34.988 118.914C38.9749 109.382 41.6328 99.3382 42.8596 89.0894L39.2816 86.5271Z" fill="#363644"/>
<path d="M20.8804 107.845C21.1871 107.127 21.4938 106.41 21.9027 105.795C22.1072 105.488 22.3116 105.18 22.5161 104.873C22.6183 104.668 22.7206 104.565 22.8228 104.36L23.1295 103.95C23.4362 104.975 23.4362 105.385 23.4362 105.795C23.4362 106.615 23.4362 107.435 23.3339 108.357C22.7206 107.947 21.6983 107.742 20.676 107.537C20.2671 107.537 20.1648 108.05 20.5738 108.05C21.596 108.255 22.5161 108.46 23.5384 108.562C23.7428 108.562 23.8451 108.562 23.9473 108.255C23.9473 107.537 23.9473 106.717 24.0495 106C24.0495 105.385 24.0495 104.565 23.8451 103.95C23.8451 103.745 23.5384 103.438 23.3339 103.335C23.0272 103.233 22.7206 103.54 22.6183 103.745C22.2094 104.258 21.8005 104.873 21.4938 105.488C21.0849 106.205 20.7782 106.922 20.4715 107.64C20.3693 107.947 20.8804 108.152 20.9827 107.742L20.8804 107.845Z" fill="#6983A3"/>
<path d="M23.3339 103.848C23.6406 102.105 23.9473 100.261 24.3562 98.5183C24.6629 96.8785 24.8674 95.2387 25.3785 93.5989C25.7874 92.164 26.503 90.9342 27.5253 89.9093C28.5476 88.9869 29.6721 88.3719 30.8989 87.8595C32.3301 87.3471 33.8635 86.9371 35.3969 86.6296C35.8058 86.6296 35.6014 86.0147 35.2947 86.1172C32.6368 86.7321 29.7744 87.3471 27.6276 89.0894C26.503 90.0118 25.6852 91.2416 25.1741 92.574C24.5607 94.1113 24.3562 95.8536 24.0495 97.4935C23.6406 99.5432 23.3339 101.593 22.925 103.745C22.925 104.155 23.4362 104.258 23.4362 103.848H23.3339Z" fill="#6983A3"/>
<path d="M18.0181 111.944C19.5515 110.202 22.3117 110.612 24.1518 111.432C26.0941 112.354 27.7298 113.892 28.5476 115.839C29.0588 116.966 29.2632 118.094 29.2632 119.324C29.2632 119.733 29.8766 119.733 29.8766 119.324C29.8766 116.966 28.9565 114.712 27.3209 113.072C25.7874 111.432 23.5384 110.202 21.1872 110.1C19.8582 110.1 18.427 110.407 17.5069 111.432C17.3025 111.739 17.7114 112.149 17.9158 111.842L18.0181 111.944Z" fill="#6983A3"/>
<path d="M8.61302 77.4056C8.61302 67.4642 13.52 60.085 17.8136 56.3955C21.2894 57.3179 24.7651 58.2403 28.3431 59.1626C28.6498 59.1626 28.9565 59.3676 28.9565 59.5726C28.9565 59.7776 28.9565 59.9826 28.8543 60.1875C25.9919 65.8244 23.0273 71.5638 18.427 75.9708C17.4047 76.9957 16.2802 77.9181 14.849 78.328C11.3732 79.2504 8.61302 80.8903 8.61302 77.4056Z" fill="#EFBF85"/>
<path d="M43.8819 130.802C41.9395 136.234 41.3262 153.965 40.0994 155.297C39.0771 156.424 27.0142 164.726 23.4362 168.108C17.8136 173.54 11.271 185.736 5.95507 191.476C8.71524 196.6 9.02193 190.758 13.0089 195.165C23.8451 185.326 35.0902 175.795 46.6421 166.571C48.8911 164.726 51.2423 162.881 52.7758 160.524C54.207 158.167 54.9226 155.502 55.6382 152.837C56.8649 148.43 58.3983 144.023 60.2385 139.719C56.5582 136.132 52.4691 132.852 48.1755 129.88L43.9841 130.7L43.8819 130.802Z" fill="#EFBF85"/>
<path d="M47.2554 38.7674C30.3877 38.1525 15.769 50.7586 7.9996 63.7746C13.2133 66.5418 18.3247 69.309 23.5384 72.0762C25.4807 69.924 27.423 67.8742 29.2632 65.7219C29.8765 74.2285 31.41 82.6326 33.659 90.9342C33.9657 92.164 34.3746 93.3939 35.1924 94.2138C36.1125 95.2387 37.5437 95.5461 38.8726 95.8536C43.9841 96.981 49.3 97.3909 54.5136 97.186C55.4337 97.186 56.456 97.0835 57.2738 96.4685C58.0916 95.8536 58.5005 94.7262 58.8072 93.8038C60.5451 87.962 62.3852 82.1201 64.1231 76.2783C65.3499 78.738 66.5766 81.1977 67.9056 83.6575C70.6657 78.8405 73.4259 74.0235 76.2883 69.1041C76.6972 68.3866 77.1062 67.5667 77.3106 66.7468C77.5151 65.6194 77.1062 64.5945 76.6972 63.4672C71.0747 49.2212 62.7941 37.7425 47.3576 38.7674H47.2554Z" fill="#F59F18"/>
<path d="M7.59073 186.351C10.4531 182.047 16.7913 173.028 20.0626 168.928C20.2671 168.723 28.6498 173.643 30.1833 179.074C30.4899 180.304 19.0403 188.196 15.0534 191.066C14.7467 191.271 14.3378 191.578 13.8267 191.578C13.52 191.578 13.2133 191.373 12.9066 191.168C10.6576 189.528 8.30633 187.684 7.79519 185.224L7.48851 186.454L7.59073 186.351Z" fill="#F59F18"/>
<path d="M35.3969 128.445C36.1125 135.107 32.6367 148.738 32.7389 149.045C32.8412 149.25 50.4245 153.247 59.0117 152.017C58.705 145.766 58.3983 139.616 58.1939 133.364C50.4245 131.315 42.6551 129.265 34.7835 127.318L35.3969 128.548V128.445Z" fill="#8CA3C4"/>
<path d="M88.1469 75.4584C87.7379 77.0982 86.5112 78.2256 85.2845 79.3529L73.4259 90.3192C71.5858 91.9591 69.3368 93.8039 66.9855 93.0864C65.861 92.779 64.8387 91.8566 64.0209 90.9342C61.2607 87.962 59.2162 84.3749 57.8872 80.5828C66.2699 76.0733 74.8571 71.8713 83.5466 67.9767L88.2491 75.3559L88.1469 75.4584Z" fill="#EFBF85"/>
<path d="M60.8518 42.1495C51.549 60.5975 41.7351 79.3529 26.1963 92.779C26.7075 93.3939 27.2186 94.1113 27.7298 94.7262C42.7574 80.3778 55.4337 63.5697 65.0432 45.1217C65.2477 44.7118 65.1454 44.1993 64.8387 43.8918C64.1231 43.2769 63.1009 42.3545 62.4875 41.7396C61.9763 41.3296 61.2607 41.4321 60.9541 42.047L60.8518 42.1495Z" fill="#363644"/>
<path d="M39.0771 99.3382C36.0103 102.413 34.3746 106.512 34.4768 110.714C34.5791 116.044 37.3392 121.271 40.0994 126.19C44.4952 134.287 59.1139 150.788 59.4206 152.53C59.6251 153.862 58.3983 176.307 60.8518 204.184C66.2699 205.107 63.3053 205.107 68.7234 206.029C69.1323 196.293 72.7103 176.205 74.9594 165.443C76.0839 159.807 75.5727 153.965 73.4259 148.43C69.1323 137.259 61.9763 118.094 60.5451 109.075C60.4429 108.46 60.3407 107.742 59.8295 107.127C59.3184 106.615 58.6028 106.41 57.8872 106.205C51.0379 104.155 46.0287 101.286 39.0771 99.3382Z" fill="#EFBF85"/>
<path d="M69.7457 16.1174C68.6212 21.8568 67.0878 27.5961 65.2477 33.1305C64.941 34.1554 64.5321 35.1803 63.7142 36.0002C61.7719 38.05 58.3984 37.3326 55.6382 36.4102C54.8204 38.6649 54.4114 42.1495 53.5936 44.4043C51.1401 43.6869 45.2109 40.5097 42.7574 39.7923C42.7574 39.7923 46.3354 33.1305 48.2777 28.0061C46.4376 28.0061 44.8019 26.2638 45.0064 24.5215C45.2109 22.7792 47.051 21.2418 48.7889 21.6518C49.5045 18.7821 51.6513 13.0427 52.3669 10.173C57.9894 11.6079 63.5098 13.5552 68.9279 15.9124L69.6435 16.1174H69.7457Z" fill="#EFBF85"/>
<path d="M58.8072 93.8038C59.5228 94.2138 66.9855 106.205 72.1992 140.641C72.1992 140.641 60.034 146.073 51.6512 149.66C46.7443 144.843 44.6997 142.691 39.8949 137.772C37.0325 134.799 31.5122 129.777 29.7743 126.088C27.832 121.886 27.5253 117.171 27.832 112.662C28.1387 105.59 31.2055 97.5959 33.7612 91.0367C33.7612 91.0367 58.1939 93.5989 58.8072 93.9063V93.8038Z" fill="#8CA3C4"/>
<path d="M35.8058 60.8025C36.8281 56.1905 37.8504 51.5785 38.8727 46.9665C42.4507 48.7088 46.1309 50.5536 50.0156 51.7835C62.0786 55.678 75.266 54.0382 87.6357 51.3735C88.1469 53.6283 87.8402 55.883 87.6357 58.1378C86.6134 67.4642 85.3867 76.7907 83.8533 86.0147C79.5597 86.5271 75.266 87.1421 71.0747 88.0645C67.8034 88.7819 64.6343 89.8068 61.363 90.5242C50.5267 92.574 38.8727 90.0118 29.8765 83.555C33.1479 76.0733 35.2947 68.0792 36.317 59.9826L35.8058 60.7V60.8025Z" fill="#CEDDF4"/>
<path d="M87.6358 51.476C75.2661 54.1407 62.0786 55.7806 50.0156 51.886C46.1309 50.6561 42.5529 48.8113 38.8727 47.069C37.8504 51.681 36.8281 56.293 35.7036 60.905C35.7036 60.905 33.0457 76.1758 29.7744 83.6575C38.7705 90.1143 50.4246 92.6765 61.2608 90.6267C64.5321 90.0118 67.7012 88.9869 70.9725 88.167C75.1639 87.1421 79.4575 86.6297 83.7511 86.1172C85.1823 76.8932 86.5113 67.5668 87.5335 58.2403C87.738 55.9855 88.0447 53.7308 87.5335 51.476H87.6358Z" fill="#CEDDF4"/>
<mask id="mask0_125_3182" style="mask-type:luminance" maskUnits="userSpaceOnUse" x="29" y="47" width="59" height="45">
<mask id="mask1_125_3182" style="mask-type:luminance" maskUnits="userSpaceOnUse" x="29" y="46" width="59" height="46">
<path d="M35.8058 60.8025C36.8281 56.1905 37.8504 51.5785 38.8727 46.9665C42.4507 48.7088 46.1309 50.5536 50.0156 51.7835C62.0786 55.678 75.266 54.0382 87.6357 51.3735C88.1469 53.6283 87.8402 55.883 87.6357 58.1378C86.6134 67.4642 85.3867 76.7907 83.8533 86.0147C79.5597 86.5271 75.266 87.1421 71.0747 88.0645C67.8034 88.7819 64.6343 89.8068 61.363 90.5242C50.5267 92.574 38.8727 90.0118 29.8765 83.555C33.1479 76.0733 35.2947 68.0792 36.317 59.9826L35.8058 60.7V60.8025Z" fill="white"/>
</mask>
<g mask="url(#mask1_125_3182)">
<path d="M87.6358 51.476C75.2661 54.1407 62.0786 55.7806 50.0156 51.886C46.1309 50.6561 42.5529 48.8113 38.8727 47.069C37.8504 51.681 36.8281 56.293 35.7036 60.905C35.7036 60.905 33.0457 76.1758 29.7744 83.6575C38.7705 90.1143 50.4246 92.6765 61.2608 90.6267C64.5321 90.0118 67.7012 88.9869 70.9725 88.167C75.1639 87.1421 79.4575 86.6297 83.7511 86.1172C85.1823 76.8932 86.5113 67.5668 87.5335 58.2403C87.738 55.9855 88.0447 53.7308 87.5335 51.476H87.6358Z" fill="white"/>
</g>
</mask>
<g mask="url(#mask0_125_3182)">
<path d="M51.0378 47.274C50.22 50.6561 49.4022 54.0383 48.3799 57.4204C47.3576 60.8025 46.3353 64.1846 45.2108 67.4643C44.1885 70.8464 43.064 74.126 42.0417 77.5082C41.0194 80.8903 40.0994 84.1699 39.2816 87.5521C38.4637 90.9342 37.7481 94.4188 37.237 97.9034C37.237 98.3134 37.1348 98.7233 37.0325 99.1333C37.0325 99.5432 37.5437 99.5432 37.6459 99.1333C38.0548 95.6487 38.7704 92.2665 39.5882 88.8844C40.4061 85.5023 41.3261 82.1202 42.3484 78.8405C43.3707 75.4584 44.393 72.1788 45.5175 68.7966C46.5398 65.517 47.6643 62.1349 48.6866 58.8552C49.7089 55.4731 50.6289 52.091 51.4468 48.7088C51.4468 48.2989 51.6512 47.8889 51.7534 47.479C51.7534 47.1715 51.2423 46.9665 51.2423 47.3765L51.0378 47.274Z" fill="#8CA3C4"/>
<path d="M65.6566 48.0939C64.941 51.3735 64.2254 54.6532 63.5098 57.9328C62.7942 61.2125 62.0786 64.4921 61.363 67.7717C60.6474 71.0514 60.034 74.331 59.3184 77.6107C58.6028 80.8903 57.9894 84.1699 57.3761 87.4496C56.7627 90.7292 56.1493 94.0089 55.4337 97.2885L55.2293 98.5184C55.2293 98.5184 55.7404 99.0308 55.7404 98.6208C56.3538 95.3412 56.9671 92.0616 57.5805 88.7819C58.1939 85.5023 58.9095 82.2226 59.5229 78.943C60.1362 75.6634 60.8518 72.3837 61.5674 69.1041C62.283 65.8244 62.9986 62.5448 63.612 59.2652C64.3276 55.9855 65.0432 52.7059 65.7588 49.4263C65.7588 49.0163 65.9633 48.6063 66.0655 48.1964C66.0655 47.7864 65.5543 47.6839 65.5543 48.0939H65.6566Z" fill="#8CA3C4"/>
<path d="M79.4574 48.5039C78.8441 54.9606 78.2307 61.3149 77.4129 67.7717C76.6973 74.2285 75.8794 80.5828 74.9594 87.0396C74.4482 90.6267 73.9371 94.2138 73.4259 97.8009C73.4259 98.2109 73.9371 98.3134 73.9371 97.9034C74.8571 91.5491 75.7772 85.0923 76.595 78.6355C77.4129 72.2812 78.1285 65.8245 78.8441 59.3677C79.253 55.7806 79.5597 52.091 79.9686 48.5039C79.9686 48.0939 79.4574 48.0939 79.3552 48.5039H79.4574Z" fill="#8CA3C4"/>
</g>
<path d="M31.41 61.3149C32.9434 59.2651 34.5791 57.1129 36.1125 55.0631C36.7259 55.1656 36.7259 55.9855 36.7259 56.4979C36.6236 57.5228 36.4192 58.4452 36.1125 59.4701C36.1125 59.7776 36.0103 59.9826 35.8058 60.1875C35.6013 60.3925 35.3969 60.5975 35.0902 60.7C33.8635 61.4174 32.5345 62.0323 31.3077 62.6473V61.3149H31.41Z" fill="#B78053"/>
<path d="M8.71524 79.7629C8.71524 82.1201 10.3509 86.1172 12.3955 84.9898C17.5069 82.1201 25.2763 74.9459 28.9565 70.7439C29.161 70.5389 29.4677 70.5389 29.6721 70.7439C31.9211 72.7936 38.6682 75.7658 38.6682 74.2285C38.6682 74.2285 35.2947 71.5638 34.0679 70.5389C36.2147 72.0762 44.393 73.6136 43.3707 72.4862C41.5306 71.0513 36.8281 68.7966 35.3969 66.9518C37.7482 68.5916 42.4507 71.9737 45.3131 71.8713C46.4376 70.3339 38.8727 65.8244 36.7259 63.5697C38.6682 64.5946 43.6774 67.5667 44.393 66.9518C44.393 64.3896 40.4061 62.0323 38.4638 61.0074C36.0103 59.5726 32.4323 59.2651 30.5922 61.5199C30.1833 62.0323 29.8766 62.6473 29.3654 63.1597C28.7521 63.6722 28.0364 63.9796 27.3209 64.1846C22.2094 65.9269 14.7467 70.3339 10.7598 74.2285C9.6353 75.3559 8.71524 76.0733 8.71524 77.7131V79.7629Z" fill="#EFBF85"/>
<path d="M88.8625 63.3647C87.0223 63.9796 85.3867 65.107 83.9555 66.3369C83.6488 66.6443 83.2399 67.1568 83.3421 67.5667C83.4443 67.9767 84.0577 68.1817 84.5689 68.0792C85.08 67.9767 85.4889 67.8742 86.0001 68.0792C84.7733 68.1817 83.6488 68.3866 82.5243 68.7966C82.0131 68.8991 81.6042 69.1041 81.1953 69.514C80.8886 69.924 80.7864 70.5389 81.0931 70.8464C81.7065 71.4613 82.7287 70.8464 83.5466 71.1538C82.7287 71.1538 82.0131 71.2563 81.1953 71.4613C80.7864 71.5638 80.2753 71.7688 80.0708 72.1787C79.7641 72.7937 80.2753 73.6136 80.8886 73.8185C81.502 74.0235 84.1599 74.2285 84.8755 74.0235C84.1599 74.331 81.502 74.331 81.0931 74.9459C80.6842 75.5609 80.7864 76.6882 81.502 76.9957C81.8087 77.0982 82.0131 77.0982 82.3198 77.0982C84.4666 77.0982 86.6134 76.4832 88.4535 75.2534C88.9647 74.9459 89.3736 74.6384 89.5781 74.0235C89.7825 73.4086 89.3736 72.7937 88.8625 72.7937C89.3736 72.3837 89.8847 71.8713 89.987 71.2563C90.0892 70.6414 89.4758 69.8215 88.8625 70.0265C89.2714 69.514 89.5781 69.0016 89.6803 68.2841C89.6803 67.6692 89.4758 66.9518 88.8625 66.7468C89.4758 66.3369 89.8847 65.6194 89.987 64.902C90.0892 64.1846 89.5781 63.3647 88.8625 63.2622V63.3647Z" fill="#EFBF85"/>
<path d="M50.7312 145.458C55.2293 143.306 59.7273 141.051 64.1232 138.899L67.9056 137.054C67.9056 137.054 67.9056 136.439 67.5989 136.542C63.1009 138.694 58.6028 140.949 54.207 143.101L50.4245 144.946C50.4245 144.946 50.4245 145.561 50.7312 145.458Z" fill="#577293"/>
<path d="M36.4192 99.4407C34.4768 101.798 32.33 103.95 29.8765 105.795C29.5699 106 29.8765 106.512 30.1832 106.307C32.6367 104.463 34.8858 102.31 36.8281 99.8507C37.0326 99.5432 36.6236 99.1333 36.4192 99.4407Z" fill="#577293"/>
<path d="M35.1925 133.467C37.1348 135.312 39.0771 137.259 40.9173 139.104C43.0641 141.154 45.1086 143.203 47.2554 145.151C48.5844 146.483 50.0156 147.815 51.4468 148.943C51.7535 149.148 51.9579 149.455 52.3669 149.353C52.878 149.25 53.3891 148.943 53.7981 148.84C55.9449 148.02 58.0917 147.098 60.1362 146.278C62.6919 145.253 65.2477 144.228 67.7011 143.101C68.7234 142.691 69.7457 142.281 70.768 141.871C70.9725 141.871 71.2792 141.666 71.4836 141.564C71.7903 141.359 72.097 141.051 72.1992 140.744C72.3014 140.436 72.3014 140.026 72.1992 139.719C72.097 139.309 71.7903 139.104 71.5858 138.796C69.439 136.132 67.3945 133.364 65.3499 130.7C63.1009 127.83 60.7496 124.858 58.3983 122.091C56.2515 119.529 54.0025 116.966 51.4468 114.712C50.9357 114.199 50.4245 113.789 49.9134 113.379C49.6067 113.174 49.1978 113.584 49.5045 113.789C51.9579 115.839 54.1047 118.094 56.1493 120.451C58.6028 123.116 60.8518 125.985 63.1009 128.855C65.2477 131.622 67.3945 134.389 69.5413 137.157C70.0524 137.772 70.4613 138.386 70.9725 139.001C71.3814 139.514 71.9948 140.129 71.5858 140.846C71.3814 141.359 70.768 141.461 70.2569 141.666C69.7457 141.871 69.3368 142.076 68.8257 142.281C66.3722 143.306 64.0209 144.331 61.5674 145.356C59.3184 146.278 56.9671 147.303 54.7181 148.225C54.0025 148.533 53.2869 148.84 52.5713 149.045C52.3669 149.045 52.2646 149.148 52.0602 149.25C51.3446 148.738 51.1401 148.43 50.8334 148.225C50.1178 147.61 49.4022 146.893 48.5844 146.176C46.5398 144.331 44.5975 142.383 42.5529 140.436C40.5083 138.489 38.566 136.542 36.5214 134.594C36.1125 134.184 35.7036 133.774 35.2947 133.467C34.988 133.16 34.5791 133.569 34.8858 133.877L35.1925 133.467Z" fill="#577293"/>
<path d="M34.988 145.253C38.4638 145.971 41.9395 146.483 45.5175 146.995C46.5398 147.098 47.5621 147.303 48.5844 147.405C48.9933 147.405 48.9933 146.893 48.5844 146.791C45.1086 146.381 41.6329 145.868 38.1571 145.253C37.1348 145.048 36.2147 144.843 35.1924 144.741C34.7835 144.741 34.6813 145.253 35.0902 145.253H34.988Z" fill="#577293"/>
<path d="M47.6643 101.9C48.9933 101.9 50.3223 101.9 51.6512 101.9C51.6512 104.668 51.8557 107.845 52.1624 110.919C51.1401 111.432 50.0156 112.252 48.8911 112.969C48.7888 109.69 48.3799 106.102 48.0732 102.618C48.0732 102.31 48.0732 101.9 47.971 101.593C47.971 101.183 47.3576 101.183 47.3576 101.593C47.6643 104.565 47.971 107.435 48.2777 110.407C48.3799 111.329 48.4821 112.354 48.6866 113.277C48.6866 113.482 48.9933 113.584 49.0955 113.482L52.5713 111.124C52.4691 107.742 52.1624 104.668 51.9579 101.593C50.3223 101.286 48.9933 101.286 47.6643 101.286C47.2554 101.286 47.2554 101.9 47.6643 101.9Z" fill="#577293"/>
<path opacity="0.48" d="M55.6382 36.4102L48.8911 34.3604L54.7181 39.1773L55.6382 36.4102Z" fill="#9E7B4D"/>
<path d="M47.6643 20.6269C49.0955 20.1144 53.0824 18.3721 54.6159 18.1672C57.5805 17.7572 60.4429 16.4248 62.8964 14.58C64.3276 17.6547 66.3721 21.1393 69.6435 21.4468C70.0524 19.9095 70.3591 18.3721 70.768 16.8348C71.0747 15.6049 58.0916 7.40584 52.9802 6.27846C52.5713 6.27846 52.1624 6.07349 51.7535 6.27846C51.3445 6.48344 51.0379 6.8934 50.8334 7.30335C48.8911 10.788 47.7665 14.785 47.4599 18.7821C48.4821 18.3721 47.8688 19.0896 48.8911 19.4995L47.7665 20.6269H47.6643Z" fill="#363644"/>
<path d="M68.0078 12.2228C69.8479 14.8875 71.1769 17.8597 72.097 21.0368C73.017 24.214 73.4259 27.3912 73.3237 30.6708C73.3237 32.5156 73.017 34.3604 72.7103 36.1027C72.7103 36.4102 73.1192 36.6151 73.2215 36.2052C73.9371 32.9255 74.0393 29.6459 73.7326 26.2638C73.4259 22.9841 72.5059 19.807 71.1769 16.7323C70.4613 14.99 69.5412 13.3502 68.519 11.8129C68.3145 11.5054 67.9056 11.8129 68.0078 12.1203V12.2228Z" fill="#363644"/>
<path d="M66.3721 28.0061C66.2699 28.621 65.6565 29.031 65.1454 28.9285C64.6342 28.826 64.3276 28.2111 64.4298 27.5961C64.532 26.9812 65.1454 26.5712 65.6565 26.6737C66.1677 26.7762 66.4744 27.3911 66.3721 28.0061Z" fill="#222221"/>
<path d="M55.8426 25.0339C55.7404 25.6488 55.127 26.0588 54.6159 25.9563C54.1047 25.8538 53.798 25.2389 53.9003 24.6239C54.0025 24.009 54.6159 23.5991 55.127 23.7015C55.6381 23.804 55.9448 24.419 55.8426 25.0339Z" fill="#222221"/>
<path d="M62.3853 25.8538C61.9763 27.4937 62.7942 29.236 64.3276 29.9534C65.861 30.6708 67.8034 30.3633 68.9279 29.031C69.5413 28.2111 69.8479 27.1862 70.1546 26.1613C67.7011 24.9314 65.4521 24.214 63.2031 23.5991C62.7942 24.5215 62.5897 25.1364 62.4875 25.8538C62.4875 26.1613 62.8964 26.3663 62.9986 25.9563C63.1009 25.2389 63.2031 24.5215 63.3053 23.9065C65.2477 24.7265 67.5989 25.4439 69.7457 26.2638C69.3368 26.7762 69.1323 27.5961 68.7234 28.3136C68.3145 28.9285 67.7011 29.4409 66.9855 29.6459C65.5543 30.0559 64.0209 29.6459 63.3053 28.2111C62.8964 27.4937 62.6919 26.6737 62.8964 25.9563C62.8964 25.6489 62.4875 25.4439 62.3853 25.8538Z" fill="#8CA3C4"/>
<path d="M52.6735 20.4219C52.2646 21.3443 52.0601 22.0617 51.9579 22.7792C51.9579 23.0866 52.3668 23.2916 52.4691 22.8817L52.878 20.7294C54.8203 21.5493 57.1716 22.2667 59.3184 23.0866C58.705 24.3165 58.1939 26.0588 56.5582 26.5713C55.127 27.0837 53.5936 26.5713 52.7757 25.2389C52.3668 24.5215 52.2646 23.7016 52.4691 22.8817C52.4691 22.5742 52.0601 22.3692 51.9579 22.7792C51.549 24.419 52.3668 26.2638 53.9003 26.9812C55.4337 27.6986 57.376 27.2887 58.5006 25.9563C59.2162 25.1364 59.4206 24.009 59.7273 22.9841C57.2738 21.7543 55.0248 21.0369 52.7757 20.4219H52.6735Z" fill="#8CA3C4"/>
<path d="M59.7273 23.3941C59.7273 23.3941 60.7496 22.6767 61.3629 22.8817C61.9763 23.0866 62.3852 23.5991 62.4875 24.214C62.8964 23.3941 62.3852 22.5742 61.5674 22.3692C60.7496 22.1642 59.8295 22.4717 59.3184 23.1891L59.8295 23.4966L59.7273 23.3941Z" fill="#8CA3C4"/>
<path d="M52.7758 20.6269C51.9579 20.6269 51.1401 20.6269 50.4245 20.8319C50.0156 20.8319 49.6067 20.8319 49.3 20.9344C48.9933 20.9344 48.4822 20.9344 48.5844 21.4468C48.5844 21.7543 49.1978 21.6518 49.0955 21.3443C50.22 21.3443 50.5267 21.3443 50.9356 21.3443C51.549 21.3443 52.2646 21.2418 52.878 21.2418C53.1847 21.2418 53.1847 20.7294 52.878 20.7294L52.7758 20.6269Z" fill="#8CA3C4"/>
<path d="M58.5005 26.8787C59.0117 26.7762 59.5228 26.6737 60.1362 26.6737C60.3406 26.6737 61.0562 26.6737 61.0562 26.9812C60.6473 27.8011 60.4429 28.0061 60.3406 28.2111C60.034 28.621 59.7273 29.031 59.3184 29.3384C59.1139 29.5434 59.4206 29.9534 59.7273 29.7484C60.4429 29.031 60.954 28.3135 61.4652 27.4936C61.5674 27.2887 61.6696 27.0837 61.6696 26.7762C61.6696 26.5712 61.4652 26.4687 61.3629 26.2638C61.0562 26.0588 60.5451 26.0588 60.1362 25.9563C59.5228 25.9563 59.0117 25.9563 58.3983 26.1613C58.0916 26.1613 58.1938 26.7762 58.5005 26.6737V26.8787Z" fill="#A46E4A"/>
<path d="M57.1716 30.5683C57.6828 30.7733 58.1939 30.8758 58.705 31.0808C58.2961 31.7982 57.3761 32.2081 56.6605 32.0032C55.8426 31.7982 55.3315 30.9783 55.4337 30.2608L57.1716 30.6708V30.5683Z" fill="white"/>
<path d="M56.865 30.9783L58.3984 31.4907C57.8872 31.6957 57.1716 32.0032 56.456 31.9007C55.8427 31.6957 55.3315 31.0808 55.4338 30.4658C55.6382 30.7733 56.2516 30.8758 56.7627 31.0808C57.0694 31.0808 57.2739 30.6708 56.865 30.5683C56.2516 30.4658 55.7404 30.3633 55.1271 30.1584C54.6159 31.2857 55.2293 32.2081 56.1494 32.4131C57.0694 32.7206 58.0917 32.2081 58.6028 31.3882C57.8872 30.8758 57.3761 30.6708 56.865 30.4658C56.5583 30.3633 56.3538 30.8758 56.7627 30.9783H56.865Z" fill="#A46E4A"/>
<path d="M59.0117 18.9871L58.705 20.012C58.705 20.012 58.2961 20.4219 58.0916 20.4219C56.7627 20.4219 55.4337 20.4219 54.1047 20.4219C55.0248 19.9095 55.9448 19.397 56.9671 19.0896C57.4783 18.8846 58.0916 18.7821 58.6028 18.8846H59.0117V18.9871Z" fill="#363644"/>
<path d="M63.7142 21.7543C63.7142 21.7543 63.7142 22.3692 63.7142 22.6767C65.1454 23.3941 66.2699 23.7016 67.2922 23.9065C66.6788 23.2916 65.9632 22.6767 65.2476 22.1642C64.8387 21.8568 64.4298 21.6518 64.0209 21.6518H63.7142V21.7543Z" fill="#363644"/>
<path d="M62.7942 13.7601C62.283 15.7074 62.7942 17.8597 64.1232 19.192C64.3276 19.397 64.7365 19.0896 64.5321 18.7821C63.3053 17.4497 62.7942 15.5024 63.3053 13.8626C63.3053 13.5552 62.8964 13.3502 62.7942 13.7601Z" fill="#363644"/>
<path d="M46.5398 24.009C47.4599 24.3165 48.0732 25.1364 48.2777 26.0588C48.5844 24.8289 47.7666 23.9065 46.642 23.4966V24.009H46.5398Z" fill="#A46E4A"/>
<path d="M46.5398 24.8289C46.5398 24.8289 47.0509 24.9314 47.3576 25.0339C47.8688 24.6239 47.3576 24.419 46.7443 24.3165V24.8289H46.5398Z" fill="#A46E4A"/>
<path d="M55.5359 99.9532C57.0694 102.208 59.4206 103.95 62.1808 104.668V104.155C61.4652 104.258 61.5674 104.873 61.9763 104.77C62.6919 104.668 62.5897 104.258 62.3852 104.155C59.8295 103.438 57.5805 101.798 56.1493 99.6457C55.9448 99.3382 55.4337 99.6457 55.6382 99.9532H55.5359Z" fill="#577293"/>
<path d="M29.6721 106.307C30.1833 107.742 30.7966 109.075 31.5122 110.305C32.2278 111.534 32.9434 112.867 33.659 114.097C35.1925 116.556 36.7259 118.914 38.4638 121.271C40.2017 123.628 41.9396 125.883 43.7797 128.138C45.6198 130.392 47.4599 132.545 49.4022 134.697C51.3446 136.849 53.1847 139.001 55.127 141.154C55.3315 141.461 55.6382 141.666 55.8426 141.974C56.0471 142.281 56.456 141.871 56.2516 141.564C52.3669 137.259 48.5844 133.057 44.9042 128.65C41.3262 124.243 37.8504 119.733 34.7835 114.917C33.9657 113.584 33.1479 112.149 32.3301 110.714C31.5122 109.28 30.7966 107.742 30.1833 106.205C30.081 105.898 29.4677 106 29.6721 106.307Z" fill="#577293"/>
<path d="M42.2462 141.051C42.0418 142.691 42.0418 144.331 42.144 145.971C42.144 146.381 42.7574 146.381 42.7574 145.971C42.7574 144.331 42.7574 142.691 42.8596 141.051C42.8596 140.641 42.3484 140.641 42.2462 141.051Z" fill="#577293"/>
<path d="M60.6474 94.7262C61.1585 96.0586 61.6696 97.3909 62.283 98.7233C51.549 98.7233 41.2239 98.3133 30.5922 96.8785C31.1033 95.6486 31.6144 94.4188 32.1256 93.0864C41.6328 93.0864 50.8334 93.4964 60.2384 94.5213H60.6474V94.7262Z" fill="#B78053"/>
<path d="M54.4114 94.2138C54.7181 95.7511 55.0248 97.3909 55.4337 98.9283C55.4337 99.2357 55.8426 99.4407 56.1493 99.3382C56.456 99.3382 56.6604 98.9283 56.5582 98.6208C56.2515 97.0835 55.9448 95.4436 55.5359 93.9063C55.5359 93.5989 55.127 93.3939 54.8203 93.4964C54.5136 93.4964 54.3092 93.9063 54.4114 94.2138Z" fill="#8CA3C4"/>
<path d="M36.5214 92.6765C36.5214 94.6238 36.7259 96.6735 36.8281 98.6208C36.8281 98.9283 37.0326 99.2357 37.4415 99.2357C37.7482 99.2357 38.0548 98.9283 38.0548 98.6208C38.0548 96.6735 37.8504 94.6238 37.7482 92.6765C37.7482 92.369 37.5437 92.0615 37.1348 92.0615C36.8281 92.0615 36.5214 92.369 36.5214 92.6765Z" fill="#8CA3C4"/>
<path d="M43.9841 93.8038C44.9041 93.8038 45.9264 93.8038 46.8465 93.8038C47.3576 93.8038 47.7665 93.8038 48.2777 93.8038C48.4821 93.8038 48.6866 93.8038 48.8911 93.8038C49.0955 93.8038 49.0955 94.0088 49.1977 94.2138C49.3 94.6237 49.3 95.0337 49.3 95.4437C49.3 95.8536 49.3 96.3661 49.1977 96.776C49.1977 97.186 48.9933 97.4934 48.5844 97.5959C48.1755 97.5959 47.8688 97.5959 47.4599 97.5959C46.3353 97.5959 45.3131 97.5959 44.1885 97.5959C43.7796 97.5959 43.7796 98.2109 44.1885 98.2109C45.3131 98.2109 46.3353 98.2109 47.4599 98.2109C48.2777 98.2109 49.3 98.2109 49.6067 97.2885C49.9133 96.3661 49.9133 95.2387 49.8111 94.3163C49.8111 93.9063 49.6067 93.4964 49.1977 93.2914C48.7888 93.0864 48.2777 93.0864 47.7665 93.0864C46.5398 93.0864 45.3131 93.0864 43.9841 93.0864C43.5752 93.0864 43.5752 93.7013 43.9841 93.7013V93.8038Z" fill="#363644"/>
<path d="M44.5974 96.1611C46.0286 95.7511 47.5621 95.6486 49.0955 95.8536C49.5044 95.8536 49.5044 95.3412 49.0955 95.2387C47.5621 95.0337 45.9264 95.2387 44.393 95.5461C44.0863 95.5461 44.1885 96.1611 44.4952 96.0586L44.5974 96.1611Z" fill="#363644"/>
<path d="M43.4729 93.1889L43.7796 98.4158C43.7796 98.4158 44.393 98.8258 44.393 98.4158C44.393 96.6735 44.1885 94.9312 44.0863 93.1889C44.0863 92.779 43.4729 92.779 43.4729 93.1889Z" fill="#363644"/>
<path d="M71.1769 153.76C71.3814 155.195 71.9947 156.527 73.1192 157.449C73.4259 157.654 73.8348 157.244 73.5282 157.039C72.6081 156.219 71.9947 154.99 71.7903 153.76H71.1769Z" fill="#A46E4A"/>
<path d="M47.8688 160.934C48.2777 159.602 49.0956 158.372 50.2201 157.449C50.5268 157.244 50.1179 156.834 49.8112 157.039C48.6867 158.064 47.7666 159.294 47.3577 160.831C47.2555 161.139 47.7666 161.344 47.8688 160.934Z" fill="#A46E4A"/>
<path d="M34.988 66.8493C37.7482 68.7966 40.7128 70.6414 43.5752 72.3837C43.8819 72.5887 44.1886 72.0762 43.8819 71.8713C40.9172 70.129 38.0549 68.2842 35.2947 66.3369C34.988 66.1319 34.6813 66.6443 34.988 66.8493Z" fill="#A46E4A"/>
<path d="M36.2148 63.7747C38.7705 65.312 41.0195 67.1568 43.1663 69.2066C43.7797 69.8215 44.3931 70.4364 44.9042 71.0514C45.1087 71.3588 45.5176 70.9489 45.3131 70.6414C43.2685 68.3866 41.0195 66.4394 38.6683 64.6971C37.9527 64.1846 37.2371 63.7747 36.5215 63.2622C36.2148 63.0572 35.9081 63.5697 36.2148 63.7747Z" fill="#A46E4A"/>
<path d="M33.2501 70.0265C36.2147 71.7688 39.486 72.7937 42.8596 73.1011C43.2685 73.1011 43.2685 72.5887 42.8596 72.4862C39.5883 72.1787 36.3169 71.1538 33.4545 69.514C33.1479 69.309 32.8412 69.8215 33.1479 70.0265H33.2501Z" fill="#A46E4A"/>
<path d="M32.33 69.924C33.9657 67.6692 35.3969 65.312 36.6236 62.8522C36.8281 62.5448 36.317 62.2373 36.1125 62.5448C34.8858 65.0045 33.4546 67.4642 31.8189 69.6165C31.6144 69.924 32.1256 70.2314 32.33 69.924Z" fill="#A46E4A"/>
<path d="M10.0442 75.6633C12.2932 73.6136 14.44 71.5638 16.8935 69.8215C19.1425 68.0792 21.6983 66.5418 24.3562 65.517C25.8896 64.902 27.4231 64.4921 28.9565 64.2871C29.3654 64.2871 29.1609 63.6722 28.8543 63.7746C25.9919 64.1846 23.2317 65.2095 20.7782 66.6443C18.2225 68.0792 15.769 69.924 13.52 71.8713C12.191 72.9986 10.9643 74.126 9.63528 75.3559C9.3286 75.5608 9.73751 75.9708 10.0442 75.7658V75.6633Z" fill="#A46E4A"/>
<path d="M83.0354 68.1817C85.1822 68.5916 87.329 68.0792 88.9647 66.6443C89.2713 66.4394 88.8624 66.0294 88.5557 66.2344C87.1245 67.4642 85.08 68.0792 83.1376 67.6692C82.7287 67.6692 82.6265 68.1817 83.0354 68.1817Z" fill="#A46E4A"/>
<path d="M81.0931 71.3588C82.4221 71.5638 83.8533 71.5638 85.1822 71.3588C85.8978 71.2563 86.5112 70.9489 87.1246 70.7439C87.4313 70.6414 87.7379 70.4364 88.0446 70.2314C88.3513 70.0265 88.658 69.924 88.8625 69.719C89.0669 69.4115 88.8625 69.0016 88.5558 69.1041C88.2491 69.1041 88.1469 69.6165 88.4535 69.719C88.7602 69.924 89.0669 69.4115 88.7602 69.2065C88.7602 69.309 88.5558 69.309 88.3513 69.4115C87.4313 70.0265 87.1246 70.1289 86.8179 70.2314C86.2045 70.4364 85.5911 70.6414 84.9778 70.8464C83.751 71.1538 82.4221 71.1538 81.1953 70.8464C80.7864 70.8464 80.6842 71.3588 81.0931 71.3588Z" fill="#A46E4A"/>
<path d="M81.0931 74.0235C83.9555 74.6384 87.1246 74.0235 89.4758 72.1787C86.9201 73.5111 83.9555 74.126 81.2975 73.5111C80.8886 73.5111 80.7864 74.0235 81.1953 74.0235H81.0931Z" fill="#A46E4A"/>
<path d="M82.3198 76.8932C84.5688 76.8932 86.7156 76.0733 88.4535 74.7409C88.7602 74.536 88.4535 74.0235 88.1468 74.2285C86.5112 75.5609 84.3644 76.2783 82.3198 76.2783C81.9109 76.2783 81.9109 76.8932 82.3198 76.8932Z" fill="#A46E4A"/>
<path d="M52.6736 43.5844C50.1179 42.867 44.0864 38.9724 43.6774 38.8699C42.7574 38.6649 41.7351 38.6649 41.0195 39.2798C44.802 41.6371 49.0956 44.8142 53.4914 45.5317C55.2293 43.5844 56.2516 41.8421 57.0694 39.9973C56.2516 39.5873 56.3538 39.4848 54.7181 39.4848C54.7181 39.4848 53.0825 42.7645 52.6736 43.6869V43.5844Z" fill="#A46E4A"/>
<path d="M9.73754 62.6473C13.4178 64.0821 17.2002 65.517 20.9827 66.8493C21.2894 66.9518 21.4938 66.4394 21.0849 66.3369C17.3025 65.0045 13.6222 63.5697 9.83976 62.1348C9.53308 62.0323 9.32862 62.5448 9.73754 62.6473Z" fill="#A46E4A"/>
<path d="M33.1479 47.6839C33.9657 50.2461 34.3746 52.9108 34.3746 55.678C34.3746 56.088 34.988 56.088 34.988 55.678C34.988 52.9108 34.5791 50.1436 33.7613 47.5814C33.659 47.274 33.1479 47.3764 33.2501 47.6839H33.1479Z" fill="#A46E4A"/>
<path d="M40.4061 15.7074C40.4061 12.5303 41.0195 9.25064 42.4507 6.38096C42.9618 5.35607 43.473 4.33119 44.2908 3.61377C46.1309 1.76897 48.6866 1.05155 51.2424 0.436615C52.3669 0.129149 53.5936 -0.0758284 54.7181 0.0266603C56.2516 0.231638 57.6828 1.05155 59.0117 1.97395C60.7496 3.20381 62.4875 4.63865 63.5098 6.48345C56.1493 9.04567 48.7889 11.7104 41.4284 14.2726L40.4061 15.7074Z" fill="#D38013"/>
<path d="M58.2961 183.584C59.2162 190.348 59.9318 197.01 60.6474 203.774C62.8964 204.082 65.1454 204.389 67.4967 204.697C67.9056 204.697 68.4167 204.799 68.7234 204.594C69.2346 204.287 69.3368 203.467 69.439 202.749C70.1546 195.473 71.4836 188.196 72.1992 180.919C67.8034 179.484 62.283 179.894 58.0916 182.047L58.3983 183.584H58.2961Z" fill="#F59F18"/>
<mask id="mask2_125_3182" style="mask-type:luminance" maskUnits="userSpaceOnUse" x="58" y="180" width="15" height="25">
<path d="M58.2961 183.584C59.2162 190.348 59.9318 197.01 60.6474 203.774C62.8964 204.082 65.1454 204.389 67.4967 204.697C67.9056 204.697 68.4167 204.799 68.7234 204.594C69.2346 204.287 69.3368 203.467 69.439 202.749C70.1546 195.473 71.4836 188.196 72.1992 180.919C67.8034 179.484 62.283 179.894 58.0916 182.047L58.3983 183.584H58.2961Z" fill="white"/>
</mask>
<g mask="url(#mask2_125_3182)">
<path d="M59.8295 180.407C60.2384 184.506 60.4429 188.708 60.6473 192.808C60.7495 197.01 60.7495 201.11 60.6473 205.312C60.6473 207.669 60.4429 209.924 60.2384 212.281C60.2384 212.691 60.7495 212.691 60.8518 212.281C61.1585 208.181 61.3629 203.979 61.3629 199.777C61.3629 195.575 61.3629 191.476 61.0562 187.274C60.954 184.916 60.7495 182.662 60.5451 180.304C60.5451 179.894 59.9317 179.894 59.9317 180.304L59.8295 180.407Z" fill="white"/>
<path d="M62.7942 180.714C62.7942 184.916 62.7942 189.016 62.7942 193.218C62.7942 197.42 62.4875 201.519 62.0786 205.619C61.8741 207.976 61.6697 210.231 61.4652 212.588C61.4652 212.998 61.9763 212.998 62.0786 212.588C62.4875 208.489 62.8964 204.287 63.1008 200.187C63.3053 196.088 63.5098 191.886 63.5098 187.684C63.5098 185.326 63.5098 182.969 63.5098 180.714C63.5098 180.304 62.8964 180.304 62.8964 180.714H62.7942Z" fill="white"/>
<path d="M65.6566 177.64C65.4521 181.944 65.1454 186.249 64.941 190.451C64.7365 194.653 64.532 198.957 64.2254 203.159C64.1231 205.619 64.0209 207.976 63.8164 210.436C63.8164 210.846 64.3276 210.846 64.4298 210.436C64.6343 206.131 64.8387 201.827 65.1454 197.625C65.3499 193.423 65.5543 189.118 65.861 184.916C65.9632 182.457 66.1677 180.099 66.2699 177.64C66.2699 177.23 65.7588 177.23 65.6566 177.64Z" fill="white"/>
<path d="M68.9279 178.767C69.0301 182.559 68.7234 186.249 68.2123 190.041C67.7011 193.833 67.19 197.522 66.8833 201.314C66.7811 203.467 66.6788 205.517 66.8833 207.669C66.8833 208.079 67.4967 208.079 67.4967 207.669C67.2922 203.877 67.5989 200.187 68.11 196.395C68.5189 192.603 69.1323 188.913 69.439 185.121C69.6435 182.969 69.6435 180.919 69.6435 178.767C69.6435 178.357 69.0301 178.357 69.0301 178.767H68.9279Z" fill="white"/>
</g>
<path d="M36.6236 24.7264C35.8058 21.9592 36.6236 18.8846 38.3615 16.6298C40.0994 14.3751 42.5529 12.7353 45.0064 11.3004C48.6866 9.25064 52.5713 7.61082 56.5582 6.27847C59.1139 5.45856 61.7719 4.84362 64.4298 5.0486C67.0878 5.25358 69.7457 6.48344 71.2791 8.63571C72.8126 10.788 72.8126 14.0676 70.9725 16.0149C69.8479 13.3502 68.4167 10.4805 65.7588 9.35313C63.9187 8.63571 61.7719 8.94317 59.8295 9.35313C55.6382 10.2755 51.549 11.7104 47.5621 13.3502C45.722 14.1701 43.8819 15.0925 42.3484 16.4248C39.7927 18.6796 38.566 21.9592 37.3392 25.1364L36.7259 24.5215L36.6236 24.7264Z" fill="#F59F18"/>
<path d="M48.7889 17.0398C49.0955 22.4717 47.6643 27.9036 44.6997 32.4131C45.1086 32.6181 45.4153 32.823 45.8242 32.9255C49.0955 28.1086 50.9357 22.4717 51.3446 16.6298L48.8911 16.9373L48.7889 17.0398Z" fill="#363644"/>
<path d="M33.8635 28.3135C35.8058 24.7264 38.4637 21.5493 41.7351 19.1921C42.6551 18.4746 43.5752 17.8597 44.5975 17.3473C44.9041 17.1423 44.5975 16.7323 44.2908 16.8348C40.7128 18.8846 37.6459 21.7543 35.1924 25.0339C34.4768 25.9563 33.8635 26.9812 33.3523 28.0061C33.1479 28.3135 33.659 28.621 33.8635 28.3135Z" fill="#363644"/>
<path d="M60.7496 198.752C63.8165 198.752 67.7012 198.752 70.768 198.855C70.768 198.855 70.9725 202.339 70.768 203.672C73.6304 205.414 79.9686 209.821 83.0355 212.076C83.7511 212.588 83.2399 213.716 82.3199 213.613C82.3199 213.613 59.6251 211.563 59.7273 211.871C59.7273 211.871 60.5452 199.675 60.7496 198.65V198.752Z" fill="#983757"/>
<mask id="mask3_125_3182" style="mask-type:luminance" maskUnits="userSpaceOnUse" x="59" y="201" width="25" height="13">
<path d="M59.7273 211.973C60.6474 211.768 82.3199 213.716 82.3199 213.716C83.2399 213.716 83.7511 212.691 83.0355 212.178C79.4574 209.411 68.9279 202.544 68.3145 202.442C65.6566 202.237 62.8964 202.134 60.2385 201.929L59.7273 211.973Z" fill="white"/>
</mask>
<g mask="url(#mask3_125_3182)">
<path d="M59.0117 210.129C62.283 210.231 65.4521 210.436 68.7234 210.641C71.9947 210.846 75.1638 211.051 78.3329 211.461C80.173 211.666 81.9109 211.871 83.751 212.178C80.5819 212.178 77.3106 211.871 74.0393 211.563C70.8702 211.256 67.5989 211.153 64.4298 210.948C62.5897 210.948 60.7495 210.743 59.0117 210.743C58.705 210.743 58.705 210.231 59.0117 210.231V210.129Z" fill="white"/>
<path d="M79.1507 208.284C78.0262 208.694 77.4128 209.821 77.3106 210.948C77.3106 211.256 76.7994 211.256 76.7994 210.948C76.7994 209.514 77.7195 208.284 79.0485 207.771V208.284H79.1507Z" fill="white"/>
<path d="M58.5005 207.259C59.9317 206.746 61.5674 207.566 62.3852 208.796C62.5897 209.206 62.7941 209.616 62.8964 210.026C62.1808 208.899 61.0562 207.771 59.7273 207.669C59.3184 207.669 59.0117 207.669 58.705 207.771V207.259H58.5005Z" fill="white"/>
<path d="M72.5058 208.181C72.5058 208.181 72.0969 209.104 71.688 209.104C71.1769 209.104 70.8702 208.694 70.8702 208.181C70.8702 207.669 71.2791 207.259 71.688 207.259C72.1991 207.259 72.5058 207.669 72.5058 208.181Z" fill="#7B2B5E"/>
<path d="M74.4482 209.104C74.4482 209.104 74.0393 210.026 73.6304 210.026C73.1192 210.026 72.8126 209.616 72.8126 209.104C72.8126 208.591 73.2215 208.181 73.6304 208.181C74.1415 208.181 74.4482 208.591 74.4482 209.104Z" fill="#7B2B5E"/>
<path d="M73.3237 209.309C73.6304 207.874 74.346 206.644 75.3682 205.619C75.6749 205.312 75.9816 205.107 76.2883 204.799C75.1638 206.234 74.2437 207.771 73.8348 209.411C73.8348 209.719 73.2214 209.616 73.3237 209.309Z" fill="white"/>
<path d="M71.3813 208.079C71.7903 206.644 72.7103 205.312 73.8348 204.287C74.0393 204.082 74.4482 204.492 74.1415 204.697C73.017 205.619 72.3014 206.849 71.7903 208.284C71.7903 208.591 71.1769 208.489 71.2791 208.181L71.3813 208.079Z" fill="white"/>
</g>
<mask id="mask4_125_3182" style="mask-type:luminance" maskUnits="userSpaceOnUse" x="7" y="168" width="24" height="24">
<path d="M7.59073 186.351C10.4531 182.047 16.7913 173.028 20.0626 168.928C20.2671 168.723 28.6498 173.643 30.1833 179.074C30.4899 180.304 19.0403 188.196 15.0534 191.066C14.7467 191.271 14.3378 191.578 13.8267 191.578C13.52 191.578 13.2133 191.373 12.9066 191.168C10.6576 189.528 8.30633 187.684 7.79519 185.224L7.48851 186.454L7.59073 186.351Z" fill="white"/>
</mask>
<g mask="url(#mask4_125_3182)">
<path d="M7.18184 189.016C9.22642 185.941 11.4754 182.867 13.7245 179.997C16.0757 177.127 18.5292 174.257 21.0849 171.593C22.5161 170.055 24.0496 168.621 25.4808 167.186C25.7875 166.981 25.3785 166.571 25.0719 166.776C22.3117 169.338 19.756 172.105 17.3025 174.872C14.849 177.64 12.4977 180.612 10.2487 183.584C9.02196 185.326 7.79522 186.966 6.56848 188.811C6.36402 189.118 6.87517 189.426 7.07962 189.118L7.18184 189.016Z" fill="white"/>
<path d="M9.22639 190.451C11.5777 187.171 14.0311 183.994 16.5869 180.919C19.1426 177.845 21.9027 174.975 24.7651 172.105C26.4008 170.465 28.0365 168.928 29.6721 167.493C29.9788 167.288 29.5699 166.878 29.2632 167.083C26.2986 169.748 23.4362 172.618 20.676 175.59C17.9158 178.562 15.2579 181.637 12.8044 184.814C11.3732 186.556 10.0442 188.401 8.71525 190.246C8.51079 190.553 9.02193 190.861 9.22639 190.553V190.451Z" fill="white"/>
<path d="M12.4977 190.656C14.849 187.581 17.3025 184.609 19.8582 181.842C22.4139 178.972 25.0719 176.307 27.832 173.745C29.3655 172.31 31.0011 170.875 32.6368 169.441C32.9435 169.236 32.5345 168.826 32.2279 169.031C29.2632 171.49 26.5031 174.155 23.7429 176.922C20.9827 179.689 18.427 182.457 15.9735 185.429C14.5423 187.069 13.2133 188.811 11.8844 190.451C11.6799 190.758 12.1911 191.066 12.3955 190.758L12.4977 190.656Z" fill="white"/>
<path d="M12.4977 194.14C15.0535 191.066 17.7114 188.093 20.676 185.326C23.5384 182.559 26.6053 179.997 29.7744 177.64C31.6145 176.307 33.4546 174.975 35.2947 173.848C35.6014 173.643 35.2947 173.13 34.988 173.335C31.6145 175.487 28.3432 177.845 25.2763 180.407C22.2095 182.969 19.2448 185.736 16.4847 188.606C14.9512 190.246 13.4178 191.886 12.0888 193.628C11.8844 193.935 12.2933 194.345 12.4977 194.038V194.14Z" fill="white"/>
</g>
<path d="M9.63511 183.994C11.9864 186.044 14.951 188.503 17.2 190.553C17.2 190.553 15.0532 193.423 14.1332 194.243C15.2577 197.42 17.3023 204.902 18.1201 208.591C18.3245 209.514 17.2 210.026 16.5867 209.309C16.5867 209.309 0.536764 193.115 0.332308 193.423C0.332308 193.423 8.71506 184.609 9.53289 183.994H9.63511Z" fill="#983757"/>
<mask id="mask5_125_3182" style="mask-type:luminance" maskUnits="userSpaceOnUse" x="0" y="186" width="19" height="24">
<path d="M0.332489 193.423C1.15032 193.833 16.5868 209.309 16.5868 209.309C17.3024 210.026 18.3247 209.514 18.1203 208.591C17.098 204.184 13.52 192.091 13.1111 191.681C11.1687 189.836 9.22638 187.991 7.18181 186.044L0.332489 193.423Z" fill="white"/>
</mask>
<g mask="url(#mask5_125_3182)">
<path d="M0.94586 191.578C3.29712 193.73 5.7506 195.985 8.10186 198.24C10.4531 200.495 12.7021 202.749 14.9512 205.004C16.1779 206.336 17.5069 207.669 18.6314 209.001C16.1779 206.951 13.9289 204.594 11.5776 202.339C9.32861 200.085 6.97735 197.83 4.52386 195.678C3.19489 194.448 1.86592 193.218 0.536945 191.988C0.332489 191.783 0.536943 191.373 0.84363 191.578H0.94586Z" fill="white"/>
<path d="M17.6091 203.159C16.4846 202.749 15.2579 203.159 14.44 204.082C14.2356 204.287 13.8267 204.082 14.0311 203.774C14.9512 202.749 16.4846 202.339 17.8136 202.749L17.6091 203.262V203.159Z" fill="white"/>
<path d="M2.37703 189.016C3.80823 189.528 4.52382 191.168 4.31937 192.705C4.31937 193.115 4.11491 193.525 3.91045 193.935C4.11491 192.603 3.91045 190.963 2.99039 190.041C2.68371 189.733 2.47925 189.631 2.07033 189.426L2.2748 188.913L2.37703 189.016Z" fill="white"/>
<path d="M12.5999 198.752C12.5999 198.752 11.6798 199.265 11.3732 198.957C10.9642 198.65 10.9642 198.137 11.3732 197.727C11.6798 197.317 12.2932 197.215 12.5999 197.522C12.9066 197.83 13.0088 198.342 12.5999 198.752Z" fill="#7B2B5E"/>
<path d="M13.52 200.7C13.52 200.7 12.5999 201.212 12.2932 200.905C11.8843 200.597 11.8843 200.085 12.2932 199.675C12.7021 199.265 13.2133 199.162 13.52 199.47C13.9289 199.777 13.9289 200.29 13.52 200.7Z" fill="#7B2B5E"/>
<path d="M12.5999 200.187C13.7244 199.367 15.1557 198.752 16.4846 198.65C16.8935 198.65 17.3025 198.65 17.7114 198.65C15.9735 199.06 14.2356 199.572 12.9066 200.597C12.5999 200.802 12.3955 200.392 12.5999 200.187Z" fill="white"/>
<path d="M11.7821 198.035C13.1111 197.215 14.5423 196.703 16.0757 196.703C16.3824 196.703 16.4846 197.215 16.0757 197.215C14.6445 197.215 13.2133 197.727 11.9865 198.445C11.6799 198.65 11.3732 198.24 11.6799 198.035H11.7821Z" fill="white"/>
</g>
</svg>
