<svg width="207" height="187" viewBox="0 0 207 187" fill="none" xmlns="http://www.w3.org/2000/svg">
<g clip-path="url(#clip0_125_3747)">
<path d="M89.318 175.628L74.5356 173.165L75.1231 169.609L89.9054 172.072L89.318 175.628Z" fill="black"/>
<path d="M78.5111 155.187C78.1522 157.711 77.7035 160.144 77.3446 162.667C77.3446 162.848 77.3446 163.118 77.3446 163.208C77.4343 163.298 77.6138 163.388 77.7035 163.388C79.7672 164.019 81.831 164.65 83.8947 165.281C83.9844 162.938 84.2536 160.595 84.7022 158.342C84.7022 157.981 84.8817 157.621 84.7022 157.26L78.4213 155.097L78.5111 155.187Z" fill="#EFBF85"/>
<path d="M95.2002 2.34314C96.5461 2.6135 97.5331 3.78507 98.1612 5.04675C98.7893 6.21832 99.4174 7.57013 100.584 8.29109C102.289 9.37254 104.532 8.74169 106.506 9.37254C108.031 9.91326 109.287 11.1749 110.005 12.6169C110.723 14.0588 110.992 15.7711 111.082 17.3933C110.185 17.6636 109.287 17.934 108.39 18.2043C108.121 18.2043 107.852 18.3846 107.672 18.2945C106.775 18.1142 106.506 16.6723 105.519 16.5822C105.519 17.6636 105.698 18.6549 105.967 19.6463C105.25 19.6463 104.442 19.8265 103.814 20.0969C103.814 19.1957 103.545 18.2945 102.917 17.5735C103.186 18.4747 103.455 19.2858 103.724 20.187C102.648 20.5475 101.661 20.908 100.584 21.2684C100.315 21.2684 100.045 21.4487 99.7763 21.3586C99.5071 21.3586 99.3277 21.0882 99.1482 20.908C96.3667 17.7537 93.6749 14.5094 91.0728 11.1749L95.1105 2.43326L95.2002 2.34314Z" fill="#E15046"/>
<path d="M84.7022 161.045C83.5358 161.316 82.818 162.848 81.5618 162.848C81.2029 162.848 80.844 162.758 80.485 162.577L76.5371 161.045C75.0117 162.577 73.935 167.354 72.948 169.336C72.7685 169.697 95.3797 174.113 98.6996 172.941C97.6229 170.959 95.9181 169.427 93.8544 168.706C91.4317 167.804 88.381 167.894 86.5865 165.912C85.42 164.65 85.1509 162.758 84.8817 160.955H84.6125L84.7022 161.045Z" fill="#EFA02A"/>
<mask id="mask0_125_3747" style="mask-type:luminance" maskUnits="userSpaceOnUse" x="72" y="160" width="27" height="14">
<path d="M84.7022 161.045C83.5358 161.316 82.818 162.848 81.5618 162.848C81.2029 162.848 80.844 162.758 80.485 162.577L76.5371 161.045C75.0117 162.577 73.935 167.354 72.948 169.336C72.7685 169.697 95.3797 174.113 98.6996 172.941C97.6229 170.959 95.9181 169.427 93.8544 168.706C91.4317 167.804 88.381 167.894 86.5865 165.912C85.42 164.65 85.1509 162.758 84.8817 160.955H84.6125L84.7022 161.045Z" fill="white"/>
</mask>
<g mask="url(#mask0_125_3747)">
<path d="M97.5332 168.435C96.1873 168.796 94.9311 169.517 94.0338 170.688C93.7646 170.959 93.5852 171.319 93.4057 171.679C93.316 171.86 93.0468 171.68 93.1365 171.589C93.8544 170.328 94.9311 169.246 96.277 168.615C96.6359 168.435 97.0845 168.345 97.4434 168.165C97.6229 168.165 97.7126 168.435 97.5332 168.435Z" fill="white"/>
<path d="M98.4304 171.86C96.6359 171.86 94.7516 171.86 92.9571 171.86C91.1626 171.86 89.2783 171.68 87.4838 171.409C85.6892 171.229 83.8947 170.959 82.1001 170.688C80.3056 170.418 78.5111 170.057 76.7165 169.607C74.922 169.156 73.1275 168.706 71.4226 168.255C71.2432 168.255 70.974 168.165 70.7946 168.075C70.6151 168.075 70.7048 167.714 70.7946 167.804C72.4994 168.345 74.2939 168.796 76.0884 169.246C77.883 169.697 79.6775 170.057 81.3823 170.328C83.1769 170.598 84.9714 170.868 86.766 171.139C88.5605 171.319 90.355 171.499 92.2393 171.589C94.0338 171.68 95.9181 171.77 97.7126 171.68C97.9818 171.68 98.1613 171.68 98.4304 171.68C98.6099 171.68 98.6099 171.95 98.4304 171.95V171.86Z" fill="white"/>
<path d="M73.5761 164.2C75.1015 165.101 76.3576 166.543 77.0755 168.165C77.2549 168.615 77.4344 169.156 77.5241 169.607C77.5241 169.787 77.2549 169.787 77.2549 169.607C76.896 167.894 75.9987 166.362 74.6528 165.281C74.2939 165.011 73.8453 164.65 73.4864 164.47C73.3069 164.38 73.4864 164.109 73.5761 164.2Z" fill="white"/>
<path d="M90.0858 166.002C88.8297 166.453 87.7529 167.264 86.8557 168.345C86.5865 168.615 86.407 168.976 86.2276 169.336C86.1379 169.517 85.8687 169.336 85.9584 169.246C86.6762 167.985 87.6632 166.993 88.9194 166.272C89.2783 166.092 89.6372 165.912 89.9961 165.732C90.1756 165.732 90.2653 165.912 90.0858 166.002Z" fill="white"/>
<path d="M88.7399 165.461C87.2146 166.092 85.8687 167.264 85.0611 168.706C84.9714 168.886 84.7022 168.706 84.792 168.615C85.4201 167.444 86.407 166.453 87.5735 165.732C87.9324 165.551 88.2913 165.371 88.6502 165.191C88.8297 165.191 88.9194 165.371 88.7399 165.461Z" fill="white"/>
<path d="M87.4838 164.74C86.2276 165.371 85.1509 166.272 84.3433 167.444C84.2536 167.624 83.9844 167.444 84.1639 167.264C84.9714 166.092 86.1379 165.101 87.394 164.47C87.5735 164.47 87.6632 164.65 87.4838 164.74Z" fill="white"/>
<path d="M86.2276 161.856C85.42 162.667 84.7022 163.388 83.8947 164.2C83.6255 164.47 83.2666 164.83 82.8179 164.92C82.459 164.92 82.1001 164.92 81.7412 164.83C79.6775 164.2 77.5241 163.659 75.4603 163.028C74.7425 162.848 74.0247 162.577 73.7555 161.946C73.6658 161.586 73.6658 161.226 73.7555 160.865C74.2042 159.243 75.8192 157.981 77.5241 158.071C79.1391 158.161 80.5748 159.333 82.1899 159.423C83.446 159.423 84.7022 158.882 85.42 157.801L86.2276 161.766V161.856Z" fill="#B03537"/>
</g>
<path d="M82.9974 171.679C86.0481 168.165 89.0988 164.65 92.1495 161.226C92.5085 161.766 93.0468 162.217 93.4955 162.577C90.8036 166.272 88.2016 169.877 85.5098 173.572L82.9077 171.679H82.9974Z" fill="black"/>
<path d="M75.5501 89.4896C78.7802 99.3128 81.9207 109.226 85.1508 119.049C85.5097 120.221 85.9584 121.573 85.7789 122.834C85.5995 123.826 85.1508 124.817 84.6125 125.718C79.498 135.541 76.6268 146.536 76.3576 157.531C78.6905 158.882 81.2926 159.874 83.9844 160.414C89.0091 149.059 94.0338 137.704 98.9688 126.349C99.7763 124.546 100.584 122.654 100.763 120.581C100.853 118.959 100.494 117.247 100.046 115.625C97.8921 106.883 95.29 98.2313 92.5084 89.6699C92.329 89.039 92.0598 88.4082 91.6112 87.8675C90.9831 87.1465 89.9961 86.786 89.0091 86.4255C85.3303 85.254 81.5618 84.4429 77.7035 83.9022L75.4603 89.3995L75.5501 89.4896Z" fill="#4CA27B"/>
<path d="M43.1586 185.378C19.381 185.378 0.0897293 165.912 0.0897293 142.12C0.0897293 118.328 19.4707 98.8622 43.1586 98.8622C66.8466 98.8622 86.2276 118.328 86.2276 142.12C86.2276 165.912 66.8466 185.378 43.1586 185.378ZM43.1586 101.836C21.0858 101.836 3.05071 119.95 3.05071 142.12C3.05071 164.29 21.0858 182.404 43.1586 182.404C65.2315 182.404 83.2666 164.29 83.2666 142.12C83.2666 119.95 65.3212 101.836 43.1586 101.836Z" fill="black"/>
<path d="M43.1586 183.575C20.368 183.575 1.88424 165.011 1.88424 142.12C1.88424 119.229 20.368 100.665 43.1586 100.665C65.9493 100.665 84.433 119.229 84.433 142.12C84.433 165.011 65.9493 183.575 43.1586 183.575ZM43.1586 106.703C23.6879 106.703 7.89594 122.564 7.89594 142.12C7.89594 161.676 23.6879 177.537 43.1586 177.537C62.6294 177.537 78.4213 161.676 78.4213 142.12C78.4213 122.564 62.6294 106.703 43.1586 106.703Z" fill="#E4E4E4"/>
<path d="M163.572 184.837C140.782 184.837 122.298 166.272 122.298 143.382C122.298 120.491 140.782 101.926 163.572 101.926C186.363 101.926 204.847 120.491 204.847 143.382C204.847 166.272 186.363 184.837 163.572 184.837ZM163.572 107.964C144.101 107.964 128.309 123.826 128.309 143.382C128.309 162.938 144.101 178.799 163.572 178.799C183.043 178.799 198.835 162.938 198.835 143.382C198.835 123.826 183.043 107.964 163.572 107.964Z" fill="#E4E4E4"/>
<path d="M163.572 187C187.529 187 207 167.444 207 143.382C207 119.32 187.529 99.7634 163.572 99.7634C139.615 99.7634 120.144 119.32 120.144 143.382C120.144 167.444 139.615 187 163.572 187ZM163.572 103.458C185.466 103.368 203.321 121.302 203.321 143.382C203.321 165.461 185.466 183.305 163.572 183.305C141.679 183.305 123.823 165.371 123.823 143.382C123.823 121.392 141.679 103.458 163.572 103.458Z" fill="black"/>
<path d="M137.91 78.7653C137.192 76.5122 136.385 74.2592 135.667 72.0963C135.398 72.5469 135.129 72.9975 134.86 73.4481C137.551 72.4568 140.153 71.5556 142.845 70.5643C145.447 69.573 148.139 68.6718 150.741 67.6804C152.177 67.1397 153.523 66.599 155.048 66.4187C155.317 66.4187 155.856 66.4187 156.394 66.4187C156.484 66.4187 156.843 66.5089 157.202 66.6891C157.202 66.6891 157.471 66.8694 157.74 66.9595C158.817 68.131 158.906 68.4014 158.996 68.6718C158.996 68.7619 159.176 69.1224 159.176 69.573C159.176 69.573 159.176 70.0236 159.176 70.3841C159.176 70.3841 159.086 70.7445 158.996 71.0149C158.996 71.0149 158.906 71.1951 158.727 71.4655C157.65 72.4568 157.471 72.5469 157.202 72.6371C157.202 72.6371 156.753 72.8173 156.394 72.8173C156.394 72.8173 156.035 72.8173 155.676 72.8173C155.766 72.8173 155.676 72.8173 155.407 72.8173C154.869 72.6371 154.151 72.9975 154.061 73.6284C153.882 74.2592 154.241 74.8 154.869 74.9802C157.202 75.611 159.804 74.4395 160.88 72.3667C162.047 70.2038 161.419 67.4101 159.624 65.7879C158.637 64.8867 157.381 64.346 155.945 64.2559C154.51 64.2559 153.074 64.6163 151.728 65.0669C148.947 66.0583 146.255 67.0496 143.473 68.0409C140.692 69.0322 138 70.0236 135.218 71.0149C134.86 71.105 134.501 71.2853 134.231 71.3754C133.962 71.4655 133.693 71.6457 133.603 71.9161C133.424 72.1865 133.424 72.4568 133.514 72.8173C134.231 75.0703 135.039 77.3233 135.757 79.4862C135.936 80.0269 136.564 80.4775 137.103 80.2973C137.641 80.1171 138.09 79.4862 137.91 78.9455V78.7653Z" fill="#561E1C"/>
<path d="M98.1612 4.50601C97.9818 2.79372 94.9311 0.450586 93.2263 0.270345C89.368 -0.270378 85.2406 -0.0901371 81.7412 1.71227C78.2419 3.51468 75.4603 7.02938 75.4603 10.9046C75.4603 11.8959 75.6398 12.8872 75.4603 13.8785C75.1014 15.5007 73.7555 16.6723 72.4993 17.8438C71.1534 19.1055 69.8973 20.4573 69.2692 22.1696C68.6411 23.8819 68.7308 25.9547 69.8973 27.3966C70.4356 28.0275 71.2432 28.5682 71.6918 29.3793C72.1404 30.1903 71.6918 31.452 70.8843 31.452C73.8452 32.5335 77.6138 30.6409 78.6008 27.667C78.87 28.4781 80.485 29.199 80.3953 29.2891C80.3953 29.2891 80.9337 26.8559 81.6515 25.6843C81.9207 26.3152 82.1001 26.946 82.3693 27.5769C83.9844 27.3065 85.5995 26.946 86.8556 25.8646C88.1118 24.7831 88.8296 22.9807 88.2913 21.4487C86.8557 22.44 84.7022 20.6376 84.9714 18.9253C85.2406 17.213 87.0351 15.9513 88.8296 15.7711L98.3407 4.59613L98.1612 4.50601Z" fill="#E15046"/>
<path d="M97.3537 5.94795C97.9062 6.91897 99.1812 10.2203 101 12C102.726 13.6889 103.888 13.5785 104.5 14.5C104 15.5 103.276 15.681 102.199 16.0414C102.737 17.213 103.814 22.0795 103.635 23.3412C103.186 25.7744 97.1743 26.6757 97.1743 26.6757C97.1743 26.6757 95.3797 31.1817 94.4824 33.7051C94.4824 33.9754 94.303 34.1557 94.1235 34.3359C93.9441 34.426 93.6749 34.3359 93.4057 34.3359C91.2523 33.7952 89.0988 33.1643 86.9454 32.6236C86.6762 32.6236 86.407 32.4434 86.2276 32.173C86.2276 31.9928 86.2276 31.8125 86.2276 31.5422C87.0351 28.3879 87.7529 25.2337 88.5605 22.0795C86.5865 22.7104 84.2536 20.8178 84.433 18.7451C84.6125 16.6723 86.8557 15.0501 88.8296 15.5007C87.9324 13.6082 87.2146 11.6255 86.8557 9.55276C86.8557 9.10216 86.7659 8.65156 86.9454 8.29108C87.2146 7.9306 87.6632 7.84048 88.0221 7.75036C90.9831 7.02939 93.9441 6.30843 96.8153 5.58746L97.3537 5.94795Z" fill="#EFBF85"/>
<path d="M89.5475 8.65153C88.2016 9.82309 88.1118 12.1662 89.4577 13.4279C90.355 14.3291 91.7906 14.6896 92.4187 15.8612C93.0468 17.0327 92.4187 18.4747 91.7009 19.6462C91.7009 18.4747 91.7009 17.1229 90.8037 16.4019C89.6372 15.4106 87.8427 16.0414 86.407 15.5007C84.5228 14.7797 83.8947 12.4366 83.6255 10.3638C83.6255 9.73297 83.446 9.01201 83.6255 8.38117C84.0741 6.759 85.8687 5.85779 87.4838 5.31707C90.355 4.32574 93.316 3.60478 96.3667 3.2443C97.5332 3.06406 98.7893 3.06406 99.5969 3.78502C99.9558 4.05538 100.135 4.50599 100.135 4.86647C100.135 5.58743 99.5969 6.21827 98.8791 6.30839C98.1613 6.39852 97.4434 6.03803 97.0845 5.49731C97.4434 5.67755 97.5332 6.3084 97.264 6.66888C96.9948 7.02936 96.5462 7.2096 96.1873 7.38984C95.1105 7.84044 93.5852 7.93056 93.0468 6.84912C93.4057 7.29972 93.316 8.11081 92.8674 8.47129C92.6879 8.65153 92.4187 8.65153 92.1496 8.74165C91.2523 9.01201 90.2653 9.01201 89.2783 9.01201L89.6372 8.65153H89.5475Z" fill="#E15046"/>
<path d="M85.9584 17.3932C87.4838 17.3031 88.9194 18.745 88.7399 20.2771C88.2913 19.0154 87.2146 17.8438 85.9584 17.934V17.3932Z" fill="#A46E4A"/>
<path d="M86.5865 18.8352C86.5865 18.8352 87.394 18.2944 87.7529 18.1142C87.6632 18.8352 87.2146 19.1055 86.8557 19.3759L86.5865 18.9253V18.8352Z" fill="#A46E4A"/>
<path d="M99.5969 17.8438C100.404 18.4747 101.481 18.745 102.468 18.6549C101.302 19.3759 100.135 19.0154 99.238 18.2043L99.5969 17.8438Z" fill="#A46E4A"/>
<path d="M97.8023 13.3378C97.8023 13.8785 97.4434 14.4192 97.0845 14.4192C96.7256 14.4192 96.3667 13.9686 96.3667 13.3378C96.3667 12.707 96.7256 12.2563 97.0845 12.2563C97.4434 12.2563 97.8023 12.707 97.8023 13.3378Z" fill="black"/>
<path d="M97.1743 9.10218C97.6229 9.37254 97.6229 10.0935 97.1743 10.5441C96.7256 10.9947 96.277 11.1749 95.8284 11.4453C95.1105 11.8058 94.4825 12.3465 93.9441 12.9774C93.9441 11.4453 94.6619 9.82314 95.9181 8.92194C96.277 8.65158 96.9948 8.65158 96.9948 9.10218H97.1743Z" fill="#E15046"/>
<path d="M165.367 143.652L140.692 88.1378C140.333 86.786 137.462 75.5209 137.192 74.3494C136.923 73.4482 136.026 72.9074 135.129 73.1778C134.231 73.4482 133.693 74.3494 133.962 75.2506C134.231 76.0617 135.936 82.8207 137.013 87.3267L76.896 100.214L74.2042 92.2833C73.935 91.3821 72.948 90.9315 72.0507 91.2019C71.1535 91.4723 70.7048 92.4636 70.974 93.3648L73.8453 101.926L44.684 141.669C44.3251 142.12 44.2354 142.751 44.4148 143.201C44.5943 143.742 45.0429 144.103 45.5813 144.283L91.7009 155.999C92.329 155.999 163.931 146.085 163.931 146.085C164.469 146.085 164.918 145.725 165.187 145.274C165.456 144.824 165.456 144.283 165.187 143.742L165.367 143.652ZM92.329 152.574L48.9012 141.579L76.7165 103.729L138.09 90.5711L161.419 142.931L92.4187 152.574H92.329Z" fill="#F4B65B"/>
<path d="M74.3836 86.6057C70.3459 86.4255 66.2185 87.2366 62.5396 88.8588C62.2705 88.9489 62.0013 89.1291 61.8218 89.3995C61.5527 89.76 61.6424 90.2106 61.8218 90.6612C62.091 91.9229 62.2705 93.1845 62.8986 94.266C63.5267 95.3474 64.5136 96.3388 65.7698 96.519C66.7568 96.6992 67.7438 96.3388 68.6411 95.9783C73.5761 94.3561 78.511 92.8241 83.5358 91.5624C83.8947 91.4723 84.3433 91.3821 84.5228 91.0217C84.9714 90.3908 84.2536 89.5797 83.5358 89.1291C81.1131 87.5971 78.3316 86.6058 75.5501 86.1551C75.0117 86.065 74.1144 86.1551 74.2042 86.786L74.4733 86.5156L74.3836 86.6057Z" fill="#561E1C"/>
<path d="M94.5722 147.257C87.7529 147.257 82.2796 152.754 82.2796 159.603C82.2796 166.452 87.7529 171.95 94.5722 171.95C101.391 171.95 106.865 166.452 106.865 159.603C106.865 152.754 101.391 147.257 94.5722 147.257ZM87.2145 161.766C86.0481 161.766 85.0611 160.775 85.0611 159.603C85.0611 158.432 86.0481 157.44 87.2145 157.44C88.381 157.44 89.368 158.432 89.368 159.603C89.368 160.775 88.381 161.766 87.2145 161.766ZM94.5722 169.156C93.4057 169.156 92.4187 168.165 92.4187 166.993C92.4187 165.822 93.4057 164.83 94.5722 164.83C95.7386 164.83 96.7256 165.822 96.7256 166.993C96.7256 168.165 95.7386 169.156 94.5722 169.156ZM94.5722 154.376C93.4057 154.376 92.4187 153.385 92.4187 152.213C92.4187 151.042 93.4057 150.051 94.5722 150.051C95.7386 150.051 96.7256 151.042 96.7256 152.213C96.7256 153.385 95.7386 154.376 94.5722 154.376ZM101.93 161.766C100.763 161.766 99.7763 160.775 99.7763 159.603C99.7763 158.432 100.763 157.44 101.93 157.44C103.096 157.44 104.083 158.432 104.083 159.603C104.083 160.775 103.096 161.766 101.93 161.766Z" fill="#561E1C"/>
<path d="M73.3966 61.0115C72.8583 64.0756 72.1404 67.2299 71.6021 70.294C71.6021 70.6544 71.4226 71.0149 71.6021 71.2853C71.7815 71.5556 71.2432 71.7359 71.6021 71.9161C77.3446 74.079 84.5228 75.1605 90.7139 74.8901C91.5215 70.8347 92.329 66.8694 93.0468 62.814C88.1118 62.9041 83.1769 62.1831 78.5111 60.4708L73.3069 61.1017L73.3966 61.0115Z" fill="#EFBF85"/>
<path d="M98.6099 61.6424C100.315 63.8053 102.109 65.9682 103.814 68.041C104.263 68.6718 104.801 69.3026 105.519 69.6631C106.596 70.294 107.941 70.2038 109.198 70.1137C116.376 69.573 123.554 68.9422 130.822 68.4014C131.899 68.4014 133.065 68.2212 133.962 68.7619C134.86 69.2125 135.488 70.2038 136.475 70.6544C138 71.3754 139.795 70.5643 141.499 70.294C143.204 70.1137 144.281 71.826 143.563 73.4482C145.268 74.8 146.883 71.0149 145.717 70.294C146.165 70.8347 146.614 71.3754 146.973 71.9161C148.049 71.4655 148.319 69.9335 147.511 69.1224C147.96 69.7532 148.678 70.1137 149.485 70.0236C149.934 69.3928 149.844 68.4916 149.216 68.041C149.575 68.5817 150.203 69.0323 150.921 69.0323C151.638 67.0496 150.382 64.7065 148.588 63.625C146.793 62.4535 144.55 62.1831 142.486 62.0029C133.244 61.0116 119.785 59.3894 110.544 58.3079C110.544 58.3079 103.455 51.9995 102.109 49.8366C101.84 49.386 101.481 48.9354 101.033 48.7552C100.225 48.3947 99.238 48.7552 98.4304 49.2058C95.8283 50.4675 92.9571 51.2785 90.0858 51.7291C89.6372 51.7291 89.1886 51.9094 89.0988 52.36C89.0091 52.8106 89.9064 52.8106 89.7269 52.36L98.6996 61.7325L98.6099 61.6424Z" fill="#EFBF85"/>
<path d="M85.3303 30.1002C87.394 28.2978 90.5345 29.7397 92.9571 31.0014C95.3797 32.2631 97.264 34.426 98.8791 36.5889C102.827 41.6356 106.326 47.0429 109.467 52.6303C105.788 56.866 102.199 61.1016 98.5202 65.3373C97.7126 64.0756 96.9948 62.9041 96.1873 61.6424C95.8284 63.625 95.6489 71.105 94.9311 71.1951C86.407 72.1865 75.3706 68.9421 68.013 64.346C72.3199 54.2525 76.7165 44.159 81.0234 33.9754C81.831 32.0829 85.2406 30.0101 85.2406 30.0101L85.3303 30.1002Z" fill="#8CA3C4"/>
<path d="M87.8426 5.58743C88.0221 6.12816 88.4707 6.57876 89.0091 6.66888C89.5474 6.759 90.0858 6.48864 90.4447 6.03803C90.7139 5.58743 90.7139 4.95659 90.355 4.59611C89.9961 4.23563 89.4577 4.05538 89.0091 4.32575C89.368 5.04671 90.5344 5.76767 91.6112 5.49731C92.5982 5.22695 92.9571 4.1455 92.6879 3.2443C92.5084 2.7937 92.1495 2.3431 91.6112 2.25297C91.7009 2.16285 91.7906 1.98261 91.9701 1.89249C92.2393 2.70358 92.8673 3.33442 93.6749 3.42454C94.4824 3.60478 95.3797 3.15418 95.8283 2.52334C96.0078 2.25297 96.4564 2.52334 96.277 2.7937C95.6489 3.6949 94.5722 4.1455 93.5852 3.96526C92.5982 3.78502 91.7009 2.97394 91.4317 1.98261C91.4317 1.80237 91.6112 1.62213 91.7906 1.62213C93.0468 1.80237 93.5852 3.33442 93.316 4.41587C93.1365 5.04671 92.6879 5.49731 92.1495 5.76767C91.5214 6.03803 90.8036 5.94791 90.1755 5.67755C89.4577 5.31707 88.9194 4.68623 88.7399 3.96526C89.9064 3.15418 91.2523 3.96526 91.342 5.04671C91.4317 6.3084 90.0858 7.38984 88.9194 6.93924C88.2913 6.759 87.7529 6.21828 87.4837 5.49731C87.394 5.13683 87.9324 5.04671 88.0221 5.31707L87.8426 5.58743Z" fill="#C13F37"/>
<path d="M86.3173 7.84045C85.5097 9.01202 85.9584 10.7243 87.2146 11.3551C87.4837 11.5354 87.2146 11.986 86.9454 11.8058C85.42 10.9947 84.9714 8.9219 85.8687 7.47997C86.0481 7.20961 86.4967 7.47997 86.3173 7.75033V7.84045Z" fill="#C13F37"/>
<path d="M83.6255 9.01203C82.8179 10.0935 83.8947 11.8959 85.2406 11.7156C83.8947 12.4366 82.7282 11.0848 82.8179 9.733C82.8179 9.37251 82.9077 9.01203 83.1768 8.65155L83.6255 8.92191V9.01203Z" fill="#C13F37"/>
<path d="M81.0234 9.91324C80.3056 10.8144 79.5878 11.8058 79.5878 12.9773C79.5878 14.239 80.0364 15.4106 80.5748 16.492C81.5618 18.3846 82.8179 20.5475 81.831 22.7103C81.3823 23.6116 80.6645 24.4226 79.5878 24.5128C79.2289 24.5128 79.2289 23.972 79.5878 23.972C80.485 23.8819 81.1131 23.1609 81.3823 22.3499C81.7412 21.3585 81.6515 20.3672 81.3823 19.3759C80.6645 17.213 78.87 15.2303 79.0494 12.7971C79.1391 11.5354 79.857 10.454 80.6645 9.46264C80.844 9.19227 81.2926 9.55276 81.0234 9.82312V9.91324Z" fill="#C13F37"/>
<path d="M77.1652 17.213C78.2419 19.1957 77.883 21.719 76.2679 23.2511C75.9987 23.5214 75.6398 23.0708 75.909 22.8906C77.3446 21.5388 77.6138 19.1957 76.7165 17.4834C76.5371 17.213 76.9857 16.8525 77.1652 17.213Z" fill="#C13F37"/>
<path d="M74.8323 21.5388C74.6528 22.7104 74.1145 23.7918 73.3966 24.7831C73.5761 23.6116 74.1145 22.5301 74.2939 21.4487L74.8323 21.6289V21.5388Z" fill="#C13F37"/>
<path d="M79.498 5.227C78.0624 5.85785 77.3446 7.75038 78.0624 9.10218C78.2419 9.46267 77.7035 9.73303 77.6138 9.37254C76.8062 7.75038 77.6138 5.49736 79.2289 4.68628L79.498 5.13688V5.227Z" fill="#C13F37"/>
<path d="M81.2926 5.67756C80.4851 5.94793 80.1261 7.02937 80.5748 7.75033C80.7542 8.0207 80.3056 8.29106 80.1261 8.0207C79.4981 7.02937 80.1261 5.49732 81.2029 5.13684L81.3823 5.67756H81.2926Z" fill="#C13F37"/>
<path d="M83.446 21.5388C84.1638 22.3498 84.3433 23.5214 84.0741 24.6029C83.9844 24.9633 83.446 24.7831 83.5358 24.4226C83.8049 23.6115 83.5358 22.6202 82.9974 21.8992L83.3563 21.5388H83.446Z" fill="#C13F37"/>
<path d="M83.8947 13.6082C83.9844 14.4193 84.1638 15.2304 84.2536 16.0414C83.6255 15.4106 83.446 14.5995 83.3563 13.6983L83.8947 13.5181V13.6082Z" fill="#C13F37"/>
<path d="M97.0845 26.6756L90.8037 24.693L96.0078 29.3793L97.0845 26.6756Z" fill="#A46E4A"/>
<path d="M104.083 10.2737C105.339 10.2737 106.506 10.9046 107.224 11.8959C108.031 12.8872 108.39 14.239 108.121 15.5007C108.121 15.8612 107.493 15.6809 107.583 15.3205C107.762 14.239 107.493 13.0674 106.775 12.1662C106.057 11.3552 105.07 10.8144 103.993 10.7243C103.635 10.7243 103.635 10.1836 103.993 10.1836L104.083 10.2737Z" fill="#C13F37"/>
<path d="M108.659 11.5354C109.287 12.4366 109.736 13.4279 110.005 14.5094C110.005 14.8699 109.557 14.96 109.467 14.6896C109.198 13.6983 108.839 12.707 108.211 11.8959L108.659 11.6255V11.5354Z" fill="#C13F37"/>
<path d="M98.6996 4.95659C99.4174 5.94792 100.315 6.759 101.391 7.2096C101.93 7.47997 102.468 7.57009 103.096 7.66021C103.814 7.66021 104.532 7.57009 105.16 7.38984C107.672 7.02936 110.274 7.84045 111.889 9.8231C112.787 10.8144 113.325 12.0761 113.505 13.4279C113.505 13.7884 113.056 13.9686 112.966 13.6082C112.607 11.1749 110.992 9.10213 108.659 8.29105C107.403 7.84045 106.147 7.84045 104.801 8.02069C104.173 8.11081 103.545 8.29105 102.827 8.20093C102.289 8.20093 101.661 8.02069 101.122 7.75033C99.8661 7.2096 98.8791 6.3084 98.0715 5.22695C97.8921 4.95659 98.3407 4.68623 98.5202 4.95659H98.6996Z" fill="#E15046"/>
<path d="M82.0104 2.52336C80.1262 2.88384 78.7803 4.23565 77.7035 5.7677C77.0754 6.57878 76.6268 7.47999 76.1782 8.38119C75.7295 9.2824 75.4604 10.2737 75.1912 11.265C74.922 12.2564 74.6528 13.2477 74.2042 14.1489C73.7555 15.0501 73.1275 15.8612 72.4096 16.5822C71.6918 17.3031 71.0637 18.1142 70.4356 18.9253C69.8973 19.7364 69.3589 20.6376 69 21.5388C68.1925 23.6116 68.1027 26.0448 69.1795 28.1176C69.3589 28.3879 68.9103 28.7484 68.7308 28.3879C67.7438 26.4954 67.6541 24.3325 68.1925 22.2597C68.7308 20.2771 69.8973 18.5648 71.2432 17.0328C71.961 16.2217 72.6788 15.5007 73.2172 14.5995C73.8453 13.6983 74.1144 12.707 74.4734 11.6255C74.7425 10.6342 75.0117 9.64288 75.3706 8.65155C75.7295 7.66023 76.2679 6.6689 76.896 5.7677C78.0624 3.96529 79.6775 2.34312 81.831 1.89252C82.1899 1.89252 82.2796 2.34312 82.0104 2.43324V2.52336Z" fill="#E15046"/>
<path d="M98.1612 143.652L97.0845 151.042C99.3277 151.673 101.571 152.304 103.814 152.934C104.263 150.231 104.711 147.437 105.16 144.733L98.1612 143.652Z" fill="#EFBF85"/>
<g opacity="0.3">
<mask id="mask1_125_3747" style="mask-type:luminance" maskUnits="userSpaceOnUse" x="68" y="29" width="42" height="43">
<path d="M85.3303 30.1002C87.394 28.2978 90.5345 29.7397 92.9571 31.0014C95.3797 32.2631 97.264 34.426 98.8791 36.5889C102.827 41.6356 106.326 47.0429 109.467 52.6303C105.788 56.866 102.199 61.1016 98.5202 65.3373C97.7126 64.0756 96.9948 62.9041 96.1873 61.6424C95.8284 63.625 95.6489 71.105 94.9311 71.1951C86.407 72.1865 75.3706 68.9421 68.013 64.346C72.3199 54.2525 76.7165 44.159 81.0234 33.9754C81.831 32.0829 85.2406 30.0101 85.2406 30.0101L85.3303 30.1002Z" fill="white"/>
</mask>
<g mask="url(#mask1_125_3747)">
<path d="M74.0247 32.2631C83.2666 36.4988 93.7646 37.8506 103.724 36.1383C103.904 37.4901 104.173 38.8419 104.352 40.2838C104.352 40.4641 104.352 40.6443 104.352 40.7344C104.263 40.9147 103.994 40.9147 103.814 41.0048C94.6619 42.4467 85.2406 41.906 76.3576 39.3826L74.1144 32.3532L74.0247 32.2631Z" fill="white"/>
<path d="M70.1665 44.5195C82.6385 51.0082 97.4435 50.4675 111.441 49.8366C111.261 51.4588 110.992 53.1711 110.813 54.7932C97.1743 55.8747 83.3563 55.4241 69.8076 53.3513L70.1665 44.4294V44.5195Z" fill="white"/>
<path d="M66.5774 57.7672C79.3186 62.814 93.1366 65.067 106.775 64.4361C105.878 66.599 105.25 68.9422 104.981 71.2853C90.5345 69.7532 76.0884 67.2299 62.0013 63.8053L66.4877 57.8573L66.5774 57.7672Z" fill="white"/>
</g>
</g>
<path d="M97.3537 63.8053C99.8661 60.1104 102.378 56.4154 104.98 52.8106C105.698 51.8193 106.416 50.7378 107.224 49.7465C107.403 49.4761 107.941 49.7465 107.672 50.0169C105.07 53.6217 102.468 57.3166 99.9558 60.9214C99.238 62.0029 98.5202 62.9942 97.8023 64.0757C97.6229 64.346 97.1742 64.0757 97.3537 63.8053Z" fill="#363644"/>
<path d="M96.0975 62.0029C93.316 58.3079 91.0728 54.1624 89.368 49.9267C88.9194 48.7552 88.4707 47.4935 88.1118 46.2318C88.0221 45.8713 88.5605 45.7812 88.6502 46.0515C89.9961 50.4675 91.9701 54.613 94.3927 58.4882C95.1105 59.5696 95.8283 60.6511 96.6359 61.7325C96.8153 62.0029 96.3667 62.2732 96.1872 62.0029H96.0975Z" fill="#363644"/>
<path d="M87.4837 48.4848C88.381 49.0255 89.1886 49.6564 89.9064 50.4675C88.8296 50.107 88.0221 49.4761 87.2146 48.9354C86.9454 48.7552 87.2146 48.3046 87.4837 48.4848Z" fill="#363644"/>
<path d="M69.1794 62.3634C71.961 64.346 75.1014 65.9682 78.3316 67.1398C81.5618 68.3113 84.9714 68.9422 88.4707 69.1224C90.6242 69.2125 92.7776 69.1224 95.0208 69.1224C95.3797 69.1224 95.3797 69.6631 95.0208 69.6631C93.0468 69.6631 91.0728 69.6631 89.0988 69.6631C87.394 69.6631 85.5995 69.4829 83.8947 69.1224C80.485 68.4916 77.0754 67.4101 74.0247 65.8781C72.2302 64.9769 70.5253 63.9856 69 62.814C68.7308 62.6337 69 62.093 69.2692 62.3634H69.1794Z" fill="#363644"/>
<path d="M71.5123 71.3754C68.5514 77.5937 67.4746 84.4429 70.6151 89.8501C72.7685 93.6352 77.3446 95.0771 81.5618 96.2487C90.355 98.6819 97.264 102.377 106.057 104.81C99.238 117.697 97.3537 130.855 97.1742 145.364C99.6866 147.347 102.827 148.519 106.057 148.609L114.581 123.285C116.824 116.616 119.068 109.857 120.055 102.827C120.324 101.205 120.414 99.493 119.965 97.961C119.427 96.4289 118.35 95.2574 117.273 94.0858C111.441 88.1378 104.263 83.6318 96.4564 80.9282C94.7516 80.2974 89.7269 76.1518 90.7139 74.6198C84.7919 73.6284 77.524 72.1865 71.6021 71.1952L71.5123 71.3754Z" fill="#87C3A9"/>
<path d="M70.7048 70.5643C70.7048 71.7359 70.5254 72.9075 70.1665 74.079C77.1652 75.0704 84.2536 75.9716 91.2523 76.6024C91.0728 75.7913 90.9831 74.8901 91.0728 74.079C84.0741 73.8087 78.2419 71.826 71.4226 70.3841L70.6151 70.6545L70.7048 70.5643Z" fill="#212F56"/>
<path d="M105.878 104.9C107.224 103.729 108.48 102.647 109.826 101.476C110.095 101.205 110.454 101.656 110.185 101.836C108.839 103.008 107.583 104.089 106.237 105.261C105.968 105.531 105.609 105.08 105.878 104.9Z" fill="#4CA27B"/>
<path d="M105.788 105.982C106.955 104.72 108.57 103.909 110.274 103.819C110.633 103.819 110.633 104.36 110.274 104.36C108.749 104.45 107.224 105.261 106.147 106.342C105.878 106.613 105.519 106.252 105.788 105.982Z" fill="#4CA27B"/>
<path d="M77.7933 77.5937C78.9597 82.5503 82.0104 86.9662 86.2276 89.76C90.9831 92.8241 96.7256 93.545 101.75 95.8882C103.994 96.9696 106.237 98.3214 107.852 100.304C109.557 102.287 110.454 104.72 110.813 107.333C111.082 110.037 110.813 112.741 110.185 115.444C109.557 118.328 108.659 121.212 107.852 124.006C106.057 130.314 104.263 136.532 102.468 142.841C102.289 143.652 102.02 144.373 101.84 145.184C101.75 145.545 101.212 145.364 101.302 145.004C103.096 138.785 104.891 132.477 106.685 126.259C107.493 123.285 108.39 120.311 109.198 117.337C109.915 114.633 110.454 111.93 110.454 109.226C110.454 106.612 109.826 103.999 108.39 101.746C106.954 99.6732 104.801 98.051 102.648 96.8795C97.7126 94.266 91.9701 93.6351 87.1248 90.8414C82.818 88.4081 79.4981 84.2626 77.883 79.4862C77.7035 78.8554 77.5241 78.3147 77.3446 77.6838C77.3446 77.3233 77.7932 77.2332 77.883 77.5036L77.7933 77.5937Z" fill="#4CA27B"/>
<path d="M98.251 143.922C100.943 144.824 103.635 145.454 106.416 145.725C106.775 145.725 106.775 146.356 106.416 146.265C103.545 145.995 100.763 145.364 98.0715 144.373C97.7126 144.283 97.8921 143.742 98.251 143.832V143.922Z" fill="#4CA27B"/>
<path d="M108.957 164.837L94.1746 162.376L94.7614 158.82L109.544 161.281L108.957 164.837Z" fill="black"/>
<path d="M104.352 150.321C103.186 150.591 102.468 152.123 101.212 152.123C100.853 152.123 100.494 152.033 100.135 151.853C98.7893 151.312 97.5331 150.862 96.1872 150.321C94.6619 151.853 93.5852 156.629 92.5982 158.612C92.4187 158.973 115.03 163.388 118.35 162.217C117.273 160.234 115.568 158.702 113.505 157.981C111.082 157.08 108.031 157.17 106.237 155.187C105.07 153.926 104.801 152.033 104.532 150.231H104.263L104.352 150.321Z" fill="#F4B65B"/>
<mask id="mask2_125_3747" style="mask-type:luminance" maskUnits="userSpaceOnUse" x="92" y="150" width="27" height="13">
<path d="M104.352 150.321C103.186 150.591 102.468 152.123 101.212 152.123C100.853 152.123 100.494 152.033 100.135 151.853C98.7893 151.312 97.5331 150.862 96.1872 150.321C94.6619 151.853 93.5852 156.629 92.5982 158.612C92.4187 158.973 115.03 163.388 118.35 162.217C117.273 160.234 115.568 158.702 113.505 157.981C111.082 157.08 108.031 157.17 106.237 155.187C105.07 153.926 104.801 152.033 104.532 150.231H104.263L104.352 150.321Z" fill="white"/>
</mask>
<g mask="url(#mask2_125_3747)">
<path d="M117.273 157.711C115.927 158.071 114.671 158.792 113.774 159.964C113.505 160.234 113.325 160.595 113.146 160.955C113.146 161.135 112.787 160.955 112.876 160.865C113.594 159.603 114.671 158.522 116.017 157.891C116.376 157.711 116.824 157.621 117.183 157.44C117.363 157.44 117.453 157.711 117.273 157.711Z" fill="white"/>
<path d="M118.081 161.226C116.286 161.226 114.402 161.226 112.607 161.226C110.813 161.226 108.928 161.045 107.134 160.775C105.339 160.595 103.545 160.324 101.75 160.054C99.9558 159.784 98.1612 159.423 96.3667 158.973C94.5722 158.522 92.7776 158.071 91.0728 157.621C90.8934 157.621 90.6242 157.531 90.4447 157.44C90.2653 157.44 90.355 157.08 90.4447 157.17C92.1495 157.711 93.9441 158.161 95.7386 158.612C97.5332 159.063 99.3277 159.423 101.033 159.693C102.827 159.964 104.622 160.234 106.416 160.505C108.211 160.685 110.005 160.865 111.889 160.955C113.684 161.045 115.568 161.135 117.363 161.045C117.632 161.045 117.811 161.045 118.081 161.045C118.26 161.045 118.26 161.316 118.081 161.316V161.226Z" fill="white"/>
<path d="M93.2263 153.475C94.7516 154.376 96.0078 155.818 96.7256 157.44C96.9051 157.891 97.0845 158.432 97.1743 158.882C97.1743 159.063 96.9051 159.063 96.9051 158.882C96.5462 157.17 95.6489 155.638 94.303 154.466C93.9441 154.196 93.4955 153.836 93.1365 153.655C92.9571 153.565 93.1365 153.295 93.2263 153.385V153.475Z" fill="white"/>
<path d="M109.826 155.278C108.57 155.728 107.403 156.539 106.596 157.621C106.326 157.891 106.147 158.252 105.967 158.612C105.878 158.792 105.609 158.612 105.698 158.522C106.416 157.26 107.403 156.269 108.659 155.548C109.018 155.368 109.377 155.187 109.736 155.007C109.915 155.007 110.005 155.187 109.826 155.278Z" fill="white"/>
<path d="M108.48 154.737C106.954 155.368 105.609 156.539 104.801 157.981C104.711 158.161 104.442 157.981 104.532 157.891C105.16 156.72 106.147 155.728 107.313 155.007C107.672 154.827 108.031 154.647 108.39 154.466C108.57 154.466 108.659 154.647 108.48 154.737Z" fill="white"/>
<path d="M107.134 154.016C105.878 154.647 104.801 155.548 103.993 156.719C103.904 156.9 103.635 156.719 103.814 156.539C104.622 155.368 105.788 154.376 107.044 153.745C107.224 153.745 107.313 153.926 107.134 154.016Z" fill="white"/>
<path d="M105.878 151.132C105.07 151.943 104.352 152.664 103.545 153.475C103.276 153.746 102.917 154.106 102.468 154.196C102.109 154.196 101.75 154.196 101.391 154.106C99.3277 153.475 97.1742 152.934 95.1105 152.304C94.3927 152.123 93.6749 151.853 93.4057 151.222C93.316 150.862 93.316 150.501 93.4057 150.141C93.8543 148.519 95.4694 147.257 97.1742 147.347C98.7893 147.437 100.225 148.609 101.84 148.699C103.096 148.699 104.352 148.158 105.07 147.077L105.878 151.042V151.132Z" fill="#E15046"/>
</g>
<path d="M110.902 58.8487C110.095 60.6511 109.646 62.6337 109.736 64.6164C109.736 64.9769 109.198 64.9769 109.198 64.6164C109.198 62.5436 109.646 60.4708 110.454 58.5783C110.633 58.2178 111.082 58.5783 110.902 58.8487Z" fill="#A46E4A"/>
<path d="M144.101 68.4916C145.268 69.3027 146.165 70.5643 146.434 72.0063C146.434 72.3668 145.986 72.4569 145.896 72.1865C145.627 70.9248 144.819 69.7533 143.832 69.0323C143.563 68.8521 143.832 68.3113 144.101 68.5817V68.4916Z" fill="#A46E4A"/>
<path d="M146.434 67.9508C147.421 68.4014 148.049 69.573 148.049 70.6544C148.049 71.0149 147.511 71.0149 147.511 70.6544C147.511 69.7532 146.973 68.852 146.165 68.4014L146.434 67.9508Z" fill="#A46E4A"/>
<path d="M147.96 66.8694C149.126 67.5002 149.665 68.9422 149.306 70.2039C149.216 70.5643 148.678 70.3841 148.767 70.0236C149.126 69.0323 148.678 67.7706 147.691 67.32C147.421 67.1398 147.691 66.6892 147.96 66.8694Z" fill="#A46E4A"/>
<path d="M17.4967 126.89C16.1508 128.872 15.0741 130.945 14.3563 133.198C13.6385 135.451 13.1898 137.794 13.1001 140.137C13.0104 142.48 13.1898 144.824 13.7282 147.167C14.2665 149.51 15.1638 151.673 16.3303 153.746C17.7659 156.179 19.5604 158.252 21.4447 160.324C21.7139 160.595 21.8933 160.865 22.1625 161.045C22.4317 161.316 21.9831 161.676 21.8036 161.406C19.8296 159.333 17.9454 157.17 16.42 154.737C15.1638 152.664 14.1768 150.501 13.5487 148.158C12.9207 145.815 12.5617 143.382 12.6515 140.948C12.6515 138.515 13.0104 136.082 13.6385 133.829C14.2666 131.486 15.2536 129.323 16.5995 127.25C16.7789 126.98 16.9584 126.709 17.1378 126.529C17.3173 126.259 17.8556 126.529 17.5864 126.8L17.4967 126.89Z" fill="#CEDDF4"/>
<path d="M18.0351 136.893C17.6762 141.489 19.1118 146.175 21.8934 149.87C22.7009 150.862 23.5982 151.853 24.4955 152.664C24.7646 152.934 24.4057 153.295 24.1366 153.025C20.5475 149.96 18.2146 145.454 17.5865 140.768C17.407 139.416 17.3173 138.065 17.407 136.713C17.407 136.352 17.9454 136.352 17.9454 136.713L18.0351 136.893Z" fill="#CEDDF4"/>
<path d="M67.3849 126.8C70.5253 129.323 72.6788 132.928 73.4863 136.893C73.6658 137.974 73.8452 139.146 73.8452 140.227C73.8452 140.588 73.3069 140.588 73.3069 140.227C73.3069 136.352 71.8713 132.477 69.3589 129.413C68.6411 128.602 67.8335 127.791 67.026 127.16C66.7568 126.98 67.1157 126.529 67.3849 126.8Z" fill="#CEDDF4"/>
<path d="M66.4876 131.666C68.2822 133.378 69.4486 135.812 69.6281 138.245C69.6281 138.605 69.0897 138.605 69.0897 138.245C68.9103 135.902 67.8335 133.649 66.1287 132.026C65.8596 131.756 66.2185 131.396 66.4876 131.666Z" fill="#CEDDF4"/>
<path d="M141.14 159.784C143.025 163.298 145.806 166.272 149.036 168.525C152.267 170.778 155.945 172.31 159.804 173.031C161.957 173.392 164.2 173.482 166.443 173.302C166.802 173.302 166.802 173.842 166.443 173.842C162.406 174.203 158.368 173.572 154.599 172.13C150.831 170.688 147.421 168.435 144.64 165.551C143.114 163.929 141.679 162.127 140.602 160.144C140.423 159.874 140.871 159.513 141.051 159.874L141.14 159.784Z" fill="#CEDDF4"/>
<path d="M148.229 161.406C149.934 163.388 152.267 164.83 154.779 165.551C155.497 165.732 156.215 165.912 156.932 166.002C157.291 166.002 157.291 166.633 156.932 166.543C154.241 166.272 151.639 165.191 149.485 163.388C148.857 162.938 148.319 162.397 147.78 161.766C147.511 161.496 147.96 161.135 148.139 161.406H148.229Z" fill="#CEDDF4"/>
<path d="M174.519 115.354C177.57 116.165 180.351 117.517 182.863 119.5C185.286 121.392 187.44 123.826 188.965 126.619C189.862 128.151 190.49 129.773 190.939 131.486C191.029 131.846 190.49 131.936 190.401 131.666C189.593 128.692 188.157 125.988 186.183 123.555C184.209 121.212 181.876 119.229 179.185 117.787C177.659 116.976 176.044 116.346 174.339 115.895C173.98 115.895 174.16 115.264 174.519 115.354Z" fill="#CEDDF4"/>
<path d="M176.852 119.5C180.261 121.302 182.953 124.456 184.479 128.061C184.927 129.053 185.196 130.134 185.376 131.215C185.376 131.576 184.927 131.666 184.837 131.396C184.12 127.701 182.056 124.276 179.185 121.843C178.377 121.122 177.48 120.581 176.493 120.04C176.224 119.86 176.493 119.41 176.762 119.59L176.852 119.5Z" fill="#CEDDF4"/>
<path d="M170.212 142.751C170.212 146.626 167.072 149.87 163.124 149.87C159.176 149.87 156.035 146.716 156.035 142.751C156.035 138.786 159.176 135.631 163.124 135.631C167.072 135.631 170.212 138.786 170.212 142.751Z" fill="#E15046"/>
<path d="M44.7737 148.699C40.8589 148.699 37.6853 145.511 37.6853 141.579C37.6853 137.647 40.8589 134.46 44.7737 134.46C48.6885 134.46 51.8621 137.647 51.8621 141.579C51.8621 145.511 48.6885 148.699 44.7737 148.699Z" fill="#E15046"/>
</g>
<defs>
<clipPath id="clip0_125_3747">
<rect width="207" height="187" fill="white" transform="matrix(-1 0 0 1 207 0)"/>
</clipPath>
</defs>
</svg>
