<svg width="104" height="201" viewBox="0 0 104 201" fill="none" xmlns="http://www.w3.org/2000/svg">
<g clip-path="url(#clip0_125_3009)">
<path d="M48.1076 26.2745C46.0959 26.1869 43.9966 25.0484 43.2969 23.1216C42.5971 21.1948 43.5593 18.6549 45.5711 18.217C44.7838 16.9033 44.0841 15.502 44.3465 14.0131C44.6089 12.5242 46.2708 11.298 47.6703 11.9987C46.6207 10.0719 46.3583 7.61962 46.9705 5.51765C47.4079 4.11635 48.37 2.71504 49.7695 2.27713C51.169 1.83922 53.0059 2.71504 53.1808 4.20393C53.4432 2.18955 55.0176 0.262753 57.1169 0.175171C59.1287 0.175171 61.053 2.4523 60.0908 4.29151C60.3532 2.53988 62.9773 1.9268 64.3768 3.06537C65.7763 4.20393 66.1261 6.21831 66.0387 7.96994C67.1758 7.44445 68.6627 8.32027 69.1001 9.54641C69.5374 10.7726 69.3625 12.0863 68.9251 13.3124C69.7998 12.6994 71.1993 13.4 71.5492 14.5386C71.8991 15.5896 71.5492 16.7281 71.1993 17.7791C72.5988 18.4797 72.4239 21.0196 70.9369 21.4575C71.4617 21.6327 71.7241 22.3333 71.5492 22.8588C71.3743 23.3843 70.9369 23.8222 70.4996 24.1726C68.4878 25.6614 65.7763 26.1869 63.4146 25.4863L48.37 26.4497L48.1076 26.2745Z" fill="#561E1C"/>
<path d="M92.0168 54.0379C93.8536 51.498 95.9529 49.2209 98.2271 47.2065C98.402 47.0314 98.5769 46.9438 98.7519 46.9438C99.0143 46.9438 99.1018 47.2065 99.1018 47.4693C99.1018 47.732 99.0143 47.9072 98.9268 48.1699C98.4895 49.0457 97.9647 49.9216 97.3524 50.7098C98.3145 49.1333 99.714 47.9072 101.288 47.0314C101.463 46.9438 101.638 46.8562 101.901 46.8562C102.163 46.8562 102.338 47.2065 102.338 47.4693C102.338 47.732 102.251 47.9948 102.076 48.2575C101.638 49.0457 101.114 49.834 100.501 50.5346C101.026 49.9216 101.726 49.3961 102.513 49.0457C102.775 48.9582 103.125 48.8706 103.3 49.0457C103.563 49.2209 103.475 49.6588 103.3 49.9216C102.863 50.9725 102.076 51.8484 101.201 52.6366C101.813 52.0235 102.513 51.4105 103.3 51.498C103.825 51.8484 103.738 52.1987 103.563 52.4614C102.775 53.8627 101.551 55.0013 100.414 56.0523C98.0521 58.1542 95.778 60.3438 93.4163 62.4457C93.4163 62.4457 92.1917 64.1098 92.1043 64.1098C92.0168 64.1098 91.9293 63.4967 91.8419 63.4091C90.7048 62.4457 90.6173 60.4314 89.5677 59.3804L91.8419 53.8627L92.0168 54.0379Z" fill="#CC7748"/>
<path d="M102.601 51.8484C101.026 53.2497 99.5391 54.7386 98.1396 56.2275C97.9647 56.4026 97.6148 56.1399 97.7897 55.8771C99.1892 54.3883 100.676 52.8994 102.251 51.4981C102.426 51.3229 102.775 51.5856 102.601 51.8484Z" fill="#561E1C"/>
<path d="M101.726 49.3961C100.239 50.9725 98.7519 52.549 97.1775 54.1255C97.0025 54.3006 96.6526 54.0379 96.8276 53.7751C98.402 52.2863 99.889 50.7098 101.376 49.0457C101.551 48.8706 101.901 49.1333 101.726 49.3961Z" fill="#561E1C"/>
<path d="M100.414 48.3451L100.764 46.068C101.376 46.1556 101.813 46.7686 101.726 47.3817C101.638 47.9948 101.026 48.4327 100.414 48.3451Z" fill="#561E1C"/>
<path d="M92.5416 45.8052L93.1539 45.017C92.4541 44.9294 92.2792 45.017 92.1917 45.2797C92.1917 45.5425 92.2792 45.7176 92.5416 45.8052Z" fill="#561E1C"/>
<path d="M92.3667 47.2065L92.979 46.4183C92.2792 46.3307 92.1043 46.4183 92.0168 46.681C91.9293 46.9438 92.1043 47.1189 92.3667 47.2065Z" fill="#561E1C"/>
<path d="M90.6468 56.8208L92.8161 44.2197C92.9646 43.3566 93.7879 42.6988 94.7361 42.8625L100.08 43.7848C100.942 43.9336 101.599 44.758 101.436 45.7074L99.2665 58.3085C99.118 59.1716 98.2947 59.8293 97.3465 59.6657L92.0023 58.7433C91.1403 58.5945 90.4834 57.7702 90.6468 56.8208Z" fill="#EFA02A"/>
<path d="M93.5414 45.6779L91.8178 55.6897C91.6948 56.4048 92.1738 57.0843 92.8879 57.2075L97.1116 57.9365C97.8257 58.0598 98.5043 57.58 98.6274 56.865L100.351 46.8532C100.474 46.1382 99.9949 45.4587 99.2808 45.3354L95.0572 44.6064C94.3431 44.4832 93.6644 44.9629 93.5414 45.6779Z" fill="#4B89AF"/>
<mask id="mask0_125_3009" style="mask-type:luminance" maskUnits="userSpaceOnUse" x="91" y="44" width="10" height="14">
<path d="M93.5414 45.6779L91.8178 55.6897C91.6948 56.4048 92.1738 57.0843 92.8879 57.2075L97.1116 57.9365C97.8257 58.0598 98.5043 57.58 98.6274 56.865L100.351 46.8532C100.474 46.1382 99.9949 45.4587 99.2808 45.3354L95.0572 44.6064C94.3431 44.4832 93.6644 44.9629 93.5414 45.6779Z" fill="white"/>
</mask>
<g mask="url(#mask0_125_3009)">
<path opacity="0.47" d="M102.076 46.5059C101.463 46.681 90.2674 52.6366 90.2674 52.6366L91.0546 49.834L102.513 43.966L102.076 46.5059Z" fill="white"/>
<path opacity="0.47" d="M102.338 48.3451L90.9672 53.6876L90.7048 55.0889L101.463 50.2719L102.338 48.3451Z" fill="white"/>
<path opacity="0.47" d="M100.851 50.9725C100.239 51.2353 91.492 55.5268 91.492 55.5268C91.492 55.7895 100.851 51.498 100.851 51.498V50.8849V50.9725Z" fill="white"/>
</g>
<path d="M86.6813 59.9935C86.6813 59.9935 85.5442 56.8405 87.1186 54.7386C88.9554 52.1987 89.4802 50.6222 90.9672 48.783C91.1421 48.6078 91.3171 48.5203 91.5795 48.5203C91.9294 48.5203 92.2792 48.8706 92.2792 49.2209C92.2792 49.5712 92.2792 49.9216 92.1043 50.2719C91.7544 51.4105 91.3171 53.5124 91.492 55.0889C92.0168 56.7529 91.667 58.417 91.492 58.8549C91.1421 59.9059 92.6291 61.8327 93.4163 62.2706C92.1043 64.7229 91.2296 70.4157 87.8183 74.7948C87.2935 75.4078 82.9201 70.3281 82.9201 70.3281L86.5938 60.081L86.6813 59.9935Z" fill="#CC7748"/>
<path d="M92.1917 49.5712C92.3667 50.9725 91.5795 52.1987 91.492 53.6C91.492 54.8261 91.9293 55.8771 92.0168 57.1032C92.0168 57.7163 91.9293 58.3294 91.492 58.8549C91.3171 59.03 91.0547 58.8549 91.2296 58.5921C91.9293 57.7163 91.5795 56.4902 91.3171 55.5268C91.2296 55.0013 91.0547 54.3882 91.0547 53.8627C91.0547 53.1621 91.2296 52.549 91.4045 51.9359C91.5795 51.2353 91.8419 50.5346 91.7544 49.7464C91.7544 49.4836 92.1043 49.4836 92.1043 49.7464L92.1917 49.5712Z" fill="#561E1C"/>
<path d="M62.7149 51.1477C64.7266 51.0602 66.651 52.1111 67.963 53.5124C69.3625 55.0013 70.2372 56.753 71.0244 58.5922C73.9983 65.2484 75.8351 70.2405 77.1472 77.4222C79.7712 72.5177 81.6081 67 84.2321 62.0955C87.2935 63.4092 91.492 67.4379 94.5534 68.6641C92.6291 74.3569 90.2674 79.8745 87.5559 85.217C86.5938 87.1438 85.5441 88.983 84.0572 90.4719C82.5702 91.9608 80.471 93.0118 78.2843 92.749C74.9605 92.3987 72.7737 89.1582 71.1118 86.268C68.4878 81.6262 66.0387 76.8968 63.852 72.0798L62.8023 51.1477H62.7149Z" fill="#F2E8D1"/>
<path d="M20.905 142.145C20.73 136.627 20.905 131.11 21.6047 125.592C21.9546 122.965 22.3045 120.162 21.5172 117.71C20.73 115.258 18.106 112.98 15.4819 113.593C12.9453 114.207 11.6333 117.009 10.9336 119.549C8.83432 126.818 8.30951 134.525 9.35913 141.97C9.35913 142.233 9.35913 142.495 9.62154 142.671C9.88394 143.021 10.3213 143.109 10.7586 143.109C11.8082 143.196 12.8579 143.371 13.82 143.459C11.1085 136.19 10.8461 128.044 13.0328 120.688C13.3827 119.637 13.7326 118.586 14.4323 117.71C15.132 116.922 16.3566 116.396 17.4062 116.746C19.2431 117.359 19.5055 119.724 19.418 121.651C19.1556 128.745 18.8932 135.752 18.5433 142.846C19.1556 142.846 19.7679 142.846 20.3802 142.846L20.9924 142.058L20.905 142.145Z" fill="#A36717"/>
<path d="M0 165.092C0 150.641 8.65938 137.503 9.9714 123.14C10.1463 120.95 10.2338 118.761 10.8461 116.746C11.4584 114.644 12.8579 112.718 14.9571 112.017C17.0564 111.316 19.6804 112.455 20.1177 114.557C20.1177 114.557 21.3423 118.761 21.2548 122.352C21.0799 134.525 24.2288 148.013 25.7157 160.012C26.1531 163.778 26.5904 167.631 25.7157 171.222C24.841 174.813 22.3045 178.316 18.6308 179.367C17.1438 179.805 15.6569 179.805 14.0824 179.63C8.65938 179.105 3.0614 176.214 0.962153 171.135C0.174937 169.295 0 167.193 0 165.092ZM12.4205 140.306C13.82 143.459 18.4558 142.758 18.8932 139.43C19.6804 133.825 20.6426 124.454 19.3305 118.936C18.8932 117.009 17.6686 114.732 15.5694 115.082C14.9571 115.17 14.5198 115.433 14.0824 115.871C12.0706 117.797 11.8957 120.688 11.8957 123.403C11.8082 126.643 11.7208 129.884 11.6333 133.037C11.6333 135.489 11.5458 138.029 12.508 140.306H12.4205Z" fill="#F59F18"/>
<path d="M20.4676 114.207L18.9806 118.586C18.9806 118.586 18.5433 119.111 18.1934 119.024C17.4937 118.848 17.3187 118.498 17.3187 118.148C17.4062 117.535 17.4937 117.009 17.5811 116.396C17.5811 116.308 17.4062 117.009 17.0563 118.06C16.9689 118.41 16.619 118.586 16.2691 118.498C16.0067 118.498 15.6568 118.323 15.3944 118.323C15.0446 118.323 14.8696 117.885 14.8696 117.535C14.9571 116.922 15.0446 116.484 15.132 116.133C15.132 116.484 14.9571 117.009 14.7822 117.535C14.7822 117.885 14.4323 118.06 14.0824 117.973C13.9075 117.973 13.7325 117.973 13.5576 117.973C13.2077 117.973 12.9453 117.535 13.0328 117.184C13.1203 116.571 13.2952 116.046 13.3827 115.52C13.1203 116.133 12.8578 116.746 12.5954 117.359C12.508 117.622 12.2456 117.797 11.9832 117.71C11.5458 117.71 11.2834 117.359 11.3709 116.922C11.8082 114.995 12.1581 112.98 12.5954 111.054C12.7704 110.09 13.0328 109.127 13.4701 108.339C13.82 107.725 14.9571 106.762 15.307 106.061C15.6568 105.361 16.7065 94.7634 16.9689 92.9242C16.9689 92.4863 17.0563 92.0484 17.3187 91.7856C17.6686 91.3477 18.2809 91.2601 18.8057 91.2601C20.8175 91.2601 23.529 92.5739 25.2784 93.5373L21.9546 108.776C22.217 109.39 22.6543 109.827 22.8293 110.441C23.0042 111.054 22.9167 111.667 22.8293 112.28C22.4794 114.732 22.3919 116.046 21.7796 118.41C20.1177 117.447 20.2927 114.119 20.2927 114.119L20.4676 114.207Z" fill="#CC7748"/>
<path d="M39.4483 50.7098C31.4012 54.1255 26.4155 62.3582 23.2666 70.5033C22.217 73.1308 21.3423 75.8458 20.4676 78.5608C19.5929 81.1007 18.8057 83.7281 17.931 86.268C17.3188 88.2824 16.619 90.2092 16.0067 92.2236C14.6947 96.6026 13.7325 100.982 13.1203 105.448C17.4937 106.237 21.7796 107.112 26.1531 108.076C25.3659 103.697 26.8528 99.2301 28.7771 95.1138C30.614 91.085 32.8881 87.1438 33.7628 82.7647C34.2876 80.2249 34.3751 77.5974 34.8124 75.0575C35.6871 69.9778 38.1362 65.2484 38.836 60.1687L39.5357 50.7098H39.4483Z" fill="#F2E8D1"/>
<path d="M78.6342 172.536C78.8966 175.251 79.159 177.878 79.4214 180.593C79.4214 180.769 79.4214 181.031 79.4214 181.206C79.3339 181.469 79.0715 181.557 78.8091 181.644C76.9723 182.257 75.048 182.608 73.1236 182.608C71.4617 179.192 70.4121 175.426 70.0623 171.573L78.7216 172.536H78.6342Z" fill="#CC7748"/>
<path d="M27.3776 173.412C26.9403 176.74 26.2405 180.068 25.3658 183.308C27.3776 184.272 29.3894 185.235 31.4012 186.199C33.5004 182.345 35.5997 178.579 37.6114 174.725L27.3776 173.324V173.412Z" fill="#CC7748"/>
<path d="M80.2086 152.042C79.5963 147.312 75.3978 143.284 70.6745 142.933C61.9277 142.233 54.6678 152.48 46.0084 150.903C42.1598 150.203 39.0109 147.225 35.1623 146.437C30.9638 145.648 26.6779 147.575 22.8293 149.502C24.2287 143.196 27.9024 137.416 32.8007 133.124C37.6114 128.833 39.4483 108.251 45.6585 106.499C53.968 104.047 52.7435 86.7935 60.7031 90.2968C68.6627 93.8 89.6552 136.19 89.7426 144.86L80.2086 152.042Z" fill="#C2B38C"/>
<path d="M60.5282 50.5347C56.0673 55.0013 48.3701 54.3007 43.6468 50.0967C39.5358 63.5843 37.6115 77.8601 38.0488 91.9608C47.9327 94.2379 58.3415 94.2379 68.2254 91.9608C67.1758 81.9765 66.476 71.9046 66.3011 61.8327L60.5282 50.3595V50.5347Z" fill="#F59F18"/>
<path d="M60.1783 89.6837C55.2801 90.8222 41.8099 90.1216 41.1976 90.5595C40.8478 90.8222 40.6728 91.6105 40.4979 91.9608C38.5736 95.464 38.3987 98.9673 36.7368 102.558C35.2498 105.799 33.7628 109.127 33.0631 112.718C32.4508 115.871 32.3633 119.111 32.3633 122.352C32.3633 126.468 32.6257 136.978 33.0631 141.182C33.5879 146.349 23.704 169.471 23.6165 175.163C27.0278 176.039 38.9235 177.003 39.1859 176.652C39.3608 176.477 49.7696 145.999 49.7696 145.999C49.7696 145.999 53.0059 124.541 54.0555 119.987C55.8923 144.86 62.7149 153.881 68.0505 178.316C71.8116 176.214 78.5467 175.426 82.7452 174.638C81.1707 168.507 70.6745 124.716 68.8377 107.375C68.2254 101.157 67.0883 94.5882 62.8898 90.034L60.0908 89.6837H60.1783Z" fill="#E15046"/>
<path d="M49.857 24.6105C48.7199 28.3765 48.1951 32.4052 48.2826 36.3464C48.3701 40.0249 49.0698 43.7909 48.1077 47.2941C46.0084 46.4183 43.4718 46.5059 41.3726 47.5569C41.9849 41.1634 43.9092 34.9451 46.7956 29.3399C47.5828 27.7634 48.545 26.2745 48.8949 24.5229H49.7696L49.857 24.6105Z" fill="#A36717"/>
<path d="M67.5256 36.6967C69.1875 35.0327 71.1119 32.668 70.0622 30.4784C69.8873 30.0405 69.5374 29.6026 69.4499 29.1647C69.1875 28.0262 70.762 27.0628 70.9369 25.9242C71.0244 25.3111 70.587 24.6981 70.4121 24.085C69.8873 21.8954 69.3625 19.7059 68.8377 17.6039C68.5753 16.7281 67.8755 15.5896 67.0883 16.0275C67.4382 14.2758 67.7006 12.349 66.9134 10.7726C66.1261 9.1961 63.7645 8.2327 62.4525 9.45884C62.4525 8.49544 61.7527 7.53205 60.7031 7.44446C59.7409 7.35688 58.6913 8.05754 58.5164 9.02093C57.0294 8.2327 54.8427 9.45884 54.8427 11.2105C54.0555 10.685 53.0059 10.9477 52.3936 11.5608C51.6938 12.1739 51.344 13.0497 51.0816 13.8379C50.2069 16.2026 49.5071 18.9177 50.7317 21.1072C49.7695 21.1948 49.0698 22.2458 48.9823 23.2092C48.8949 24.1726 49.2447 25.136 49.6821 26.0118C48.1951 25.8366 47.233 28.0262 48.2826 29.0771C46.9706 29.953 46.9706 32.2301 48.2826 33.1935C47.3204 33.1935 46.7082 34.332 46.8831 35.2954C47.058 36.2588 47.8452 36.9595 48.4575 37.6601C47.6703 39.7621 49.7695 42.302 51.9563 41.8641C52.1312 42.8275 53.2683 43.2654 54.2304 43.4405C55.8923 43.7909 57.9041 44.1412 59.3036 43.0902C60.7906 44.8419 64.2018 44.0536 64.8141 41.8641L67.7006 36.8719L67.5256 36.6967Z" fill="#561E1C"/>
<path d="M66.5635 41.864C66.2136 43.0902 65.8637 44.4039 64.8141 45.1921C63.4146 46.2431 61.4029 45.8928 59.6535 45.3673C59.741 45.3673 59.3911 50.4471 59.6535 50.4471C59.6535 50.4471 62.2775 52.1111 63.1522 53.3372C61.3154 57.366 56.4172 59.6431 52.1312 58.417C47.9327 57.2784 44.6964 53.9503 45.2212 49.5712C46.6207 49.3085 50.2069 49.3961 50.3818 49.1333C50.6442 48.8706 50.9941 41.0758 51.169 38.7987C49.2447 39.149 47.3204 37.0471 47.8452 35.1203C48.3701 33.1935 51.1691 32.4928 52.5685 33.8941C52.9184 30.566 53.2683 27.3255 53.6182 23.9974L68.9251 25.4863C68.9251 25.4863 67.6131 37.7477 66.5635 41.7765V41.864Z" fill="#CC7748"/>
<path d="M48.545 48.783C51.169 58.5922 48.8074 68.9268 45.8335 78.736C44.3465 83.553 42.2473 88.1948 41.1102 93.0994C40.323 96.515 40.0605 100.018 39.7981 103.522C38.836 119.637 39.6232 136.102 34.8124 151.429C34.6375 151.867 34.4626 152.392 34.0252 152.655C33.5879 152.918 33.1505 152.83 32.7132 152.83C28.9521 152.392 25.1909 151.341 21.6922 149.765C24.9285 143.897 25.8907 136.978 26.0656 130.234C26.2405 123.49 25.8032 116.746 26.4155 110.09C27.4651 98.4418 31.8385 87.319 33.238 75.6706C33.8503 70.5909 33.8503 65.5111 33.7628 60.4314C33.7628 58.3294 33.5879 55.3516 34.55 53.4248C36.2119 50.0092 48.545 48.783 48.545 48.783Z" fill="#F2E8D1"/>
<path d="M60.0908 49.6588C63.4146 50.9725 68.0505 51.3229 69.275 54.9137C69.7124 56.2274 69.7998 57.6287 69.8873 59.1176C70.4996 74.7948 71.7241 90.9974 78.5467 105.01C80.296 108.689 82.3953 112.105 84.2321 115.695C90.0925 126.993 93.5038 139.693 94.0286 152.567C94.0286 153.005 94.0286 153.443 93.8536 153.793C93.5912 154.144 93.2414 154.231 92.804 154.319C87.9933 155.458 82.7452 154.757 78.3717 152.392C80.3835 147.05 80.1211 141.094 78.984 135.401C76.8848 124.716 71.9865 114.995 67.0883 105.448C65.0765 101.595 63.0648 97.7412 61.8402 93.5372C60.7031 89.5961 60.3532 85.4797 60.0034 81.451C59.3036 73.7438 58.6039 65.949 59.3036 58.2418C59.6535 54.9137 59.3036 52.9869 60.0908 49.7464V49.6588Z" fill="#F2E8D1"/>
<path d="M69.1875 32.668C68.5753 32.7555 67.963 32.668 67.5256 32.3176C66.0387 31.1791 66.7384 28.7268 66.1261 26.9751C65.9512 26.3621 65.5139 25.8366 64.9016 25.8366C64.3768 25.8366 63.9394 26.2745 63.5021 26.5372C62.5399 27.1503 61.3154 27.1503 60.3532 26.5372C60.1783 26.4497 60.0034 26.2745 59.7409 26.2745C59.3036 26.2745 59.1287 26.8876 59.0412 27.2379C58.5164 28.9019 56.4171 29.9529 54.7552 29.2523C55.1926 30.3908 55.455 31.8797 54.4054 32.4928C53.7056 32.9307 52.7435 32.668 52.3061 33.3686C51.169 30.566 51.344 27.4131 51.7813 24.4353C51.8688 23.4719 52.0437 22.5085 52.5685 21.7202C53.2683 20.6693 54.5803 20.0562 55.8049 19.7934C58.1665 19.3555 60.6156 19.7934 62.9773 20.3189C64.7266 20.6693 66.5635 21.0196 68.3129 21.4575L70.2372 24.1725L68.4878 30.4784L69.1001 32.7555L69.1875 32.668Z" fill="#561E1C"/>
<path d="M70.762 26.5372C69.1001 24.698 67.0009 23.034 64.7267 22.2457C61.8402 21.1948 58.6913 21.4575 55.7174 22.2457C52.5686 23.1216 49.4197 24.698 47.8453 27.5006C47.3204 25.0484 49.0698 22.6836 51.0816 21.1948C55.8924 17.4287 62.8024 16.7281 68.3129 19.3555C68.7502 19.5307 69.1876 19.7934 69.45 20.2314C69.6249 20.4941 69.7124 20.932 69.7998 21.2823C70.2372 23.034 71.6367 24.6104 70.762 26.6248V26.5372Z" fill="#F59F18"/>
<path d="M48.1076 26.2745C46.7956 31.617 45.4836 36.9595 44.259 42.3896C42.5097 40.4628 39.6232 39.4994 37.0866 40.0248C39.3608 33.8065 43.4718 28.2889 48.8949 24.4353L48.1951 26.2745H48.1076Z" fill="#F59F18"/>
<path d="M48.3701 25.1359C48.0202 26.0118 47.9327 26.9752 47.9327 27.851C47.4954 26.8 47.6703 25.9242 48.0202 24.9608C48.0202 24.698 48.4575 24.8732 48.3701 25.1359Z" fill="#A36717"/>
<path d="M47.4079 28.6392C45.9209 31.0039 44.6964 33.5438 43.8217 36.1713C43.5593 36.8719 43.2969 37.6601 43.1219 38.4484C43.1219 38.7111 42.6846 38.536 42.7721 38.2732C43.5593 35.5582 44.6089 33.0183 46.0084 30.4784C46.3583 29.7778 46.7956 29.0771 47.233 28.4641C47.3204 28.2889 47.6703 28.4641 47.5828 28.7268L47.4079 28.6392Z" fill="#A36717"/>
<path d="M46.2708 29.1647C44.9588 30.8288 43.9092 32.668 42.947 34.5072C42.6846 35.0327 42.4222 35.5582 42.2473 36.1713C42.1598 36.434 41.8099 36.1713 41.8974 35.9961C42.6846 34.0693 43.7342 32.1425 44.8713 30.3909C45.2212 29.8654 45.5711 29.4275 45.921 28.902C46.0959 28.7268 46.3583 28.902 46.2708 29.1647Z" fill="#A36717"/>
<path d="M55.8923 13.5752C55.5425 12.8745 55.1051 12.2615 54.4929 11.6484C53.968 11.1229 53.2683 10.5098 52.5685 10.5974C51.8688 10.5974 51.4315 11.3857 51.2565 11.9987C50.9941 12.6118 50.9941 13.3124 50.9941 14.0131C51.0816 14.8013 51.344 15.5896 51.8688 16.2026C51.2565 15.502 50.032 15.4144 49.4197 15.9399C48.545 16.6406 48.8949 18.1294 49.5946 18.8301C50.1194 19.3556 50.8192 19.5308 51.5189 19.5308C51.7813 19.5308 51.8688 19.8811 51.5189 19.8811C50.1194 19.9687 48.7199 19.0053 48.4575 17.604C48.3701 16.9909 48.4575 16.2902 48.9823 15.8523C49.3322 15.4144 49.9445 15.2392 50.4693 15.3268C51.0816 15.3268 51.6939 15.7647 51.8688 16.2902C51.8688 16.4654 51.6939 16.6406 51.5189 16.4654C50.5568 15.1517 50.2944 13.4876 50.8192 11.9987C51.0816 11.2981 51.4315 10.5098 52.2187 10.2471C53.0934 9.98434 53.8806 10.5098 54.4929 11.1229C55.1926 11.8236 55.8049 12.5242 56.2422 13.4C56.3297 13.6628 55.9798 13.7504 55.8923 13.5752Z" fill="#561E1C"/>
<path d="M30.2641 93.9752C31.0513 93.9752 31.8385 93.9752 32.6257 94.0627C32.9756 94.0627 33.413 94.0627 33.7628 94.0627C34.0252 94.0627 34.3751 94.0627 34.6375 94.1503C34.8999 94.1503 35.1623 94.4131 35.2498 94.6758C35.4247 94.9386 35.3373 95.2889 35.2498 95.6392C35.2498 96.4275 35.1623 97.2157 35.0749 97.9163C34.8999 100.982 34.6375 104.135 34.4626 107.2L33.8503 116.484C33.6754 119.637 33.413 122.702 33.238 125.855C33.238 126.556 33.238 127.256 33.0631 127.957C32.9756 128.57 32.7132 129.008 32.1009 129.271C31.8385 129.446 31.4886 129.446 31.1388 129.533C30.7889 129.533 30.439 129.621 30.0017 129.621C29.2145 129.621 28.5147 129.621 27.7275 129.621C27.3776 129.621 27.0278 129.621 26.5904 129.533C26.328 129.533 26.4155 129.095 26.6779 129.183C28.1648 129.358 29.6518 129.446 31.0513 129.183C31.3137 129.183 31.6636 129.095 31.926 128.92C32.1884 128.745 32.3633 128.57 32.4508 128.307C32.6257 127.694 32.6257 127.081 32.7132 126.468C32.8881 123.49 33.1506 120.512 33.3255 117.535C33.5004 114.557 33.7628 111.579 33.9378 108.601C34.1127 105.624 34.3751 102.646 34.55 99.668C34.55 98.8797 34.6375 98.1791 34.725 97.3908V96.2523C34.725 96.2523 34.8999 95.5516 34.8125 95.2013C34.8125 94.5007 33.9378 94.5882 33.413 94.5882C32.6257 94.5882 31.926 94.5882 31.1388 94.5007C30.7889 94.5007 30.3516 94.5007 30.0017 94.5007C29.7393 94.5007 29.7393 94.0627 30.0017 94.1503L30.2641 93.9752Z" fill="#C2B38C"/>
<path d="M76.2725 100.281C74.4357 100.807 72.5988 101.244 70.8494 101.77C71.9865 103.346 72.9487 105.186 73.9108 107.025C74.873 108.864 75.8351 110.791 76.7098 112.718C77.5845 114.644 78.3717 116.571 79.1589 118.498C79.8587 120.425 80.5584 122.439 81.0833 124.454C81.6081 126.468 82.0454 128.482 82.2203 130.584C82.2203 130.847 82.2203 131.11 82.3078 131.373C84.4945 130.935 86.8562 130.935 89.2178 131.197C89.4802 131.197 89.4802 131.635 89.2178 131.548C86.8562 131.285 84.4071 131.285 82.0454 131.548C81.6081 129.271 81.2582 127.256 80.7334 125.242C80.2086 123.227 79.5963 121.301 78.8965 119.286C78.1968 117.359 77.4096 115.433 76.5349 113.506C75.6602 111.579 74.6981 109.74 73.7359 107.813C72.7738 105.974 71.8116 104.135 70.8494 102.295C70.762 102.033 70.587 101.858 70.4996 101.595C72.4239 100.807 74.2607 100.369 76.0975 99.8431C76.36 99.8431 76.4474 100.193 76.185 100.193L76.2725 100.281Z" fill="#C2B38C"/>
<path d="M73.6484 93.4497C73.1236 89.2458 72.5113 85.1294 71.8991 80.9255C71.2868 76.8092 70.587 72.6052 69.7998 68.4889C69.3625 66.1242 68.9251 63.8471 68.4878 61.4824C68.4878 61.2196 68.8377 61.132 68.8377 61.3948C69.6249 65.5111 70.4121 69.715 71.1118 73.919C71.8116 78.1229 72.5113 82.2392 73.1236 86.4432C73.4735 88.8079 73.8234 91.1726 74.0858 93.4497C74.0858 93.7124 73.7359 93.7124 73.7359 93.4497H73.6484Z" fill="#C2B38C"/>
<path d="M70.6745 62.9713C70.3247 65.4235 70.2372 67.9634 70.4996 70.4157C70.4996 70.6784 70.1497 70.6784 70.1497 70.4157C69.9748 67.8758 70.0623 65.336 70.4121 62.8837H70.762L70.6745 62.9713Z" fill="#C2B38C"/>
<path d="M45.9209 55.4392C45.9209 59.0301 46.0084 62.6209 45.9209 66.2118C45.746 69.7151 45.3961 73.3059 44.5214 76.7216C44.0841 78.6484 43.4718 80.5752 42.6846 82.4144C43.6468 79.0863 44.5214 75.583 44.9588 72.0798C45.4836 68.5765 45.5711 64.9856 45.5711 61.3948C45.5711 59.3804 45.5711 57.366 45.5711 55.3517C45.5711 55.0889 45.9209 55.0889 45.9209 55.3517V55.4392Z" fill="#C2B38C"/>
<path d="M43.9966 70.2406C43.6468 71.5543 43.2969 72.7804 43.0345 74.0941C43.0345 74.3569 42.5971 74.2693 42.6846 74.0066C43.0345 72.6928 43.3843 71.4667 43.6468 70.153C43.6468 69.8902 44.0841 69.9778 43.9966 70.2406Z" fill="#C2B38C"/>
<path d="M60.3532 93.0118C59.741 93.1869 59.0412 93.3621 58.3415 93.5373C57.6417 93.7124 56.8545 93.8 56.1548 93.8876C55.1926 93.9752 54.3179 94.0627 53.3558 94.0627C52.0437 94.0627 50.8192 94.0627 49.5072 94.0627C47.7578 94.0627 45.921 93.9752 44.1716 93.8876C43.9092 93.8876 43.6468 93.8876 43.3844 93.8876C43.122 93.8876 43.122 93.4497 43.3844 93.5373C46.5332 93.7124 49.7696 93.8876 52.9184 93.8C54.6678 93.8 56.3297 93.6248 58.0791 93.2745C58.8663 93.0993 59.566 92.9242 60.2658 92.6614C60.5282 92.6614 60.6157 92.9242 60.3532 93.0118Z" fill="#561E1C"/>
<path d="M46.4458 94.9386V104.835C46.4458 104.835 46.0959 105.098 46.0959 104.835V94.9386C46.0959 94.9386 46.4458 94.6758 46.4458 94.9386Z" fill="#561E1C"/>
<path d="M60.1783 93.7124L60.5282 100.281C60.5282 100.281 60.1783 100.544 60.1783 100.281L59.8284 93.7124C59.8284 93.7124 60.1783 93.4497 60.1783 93.7124Z" fill="#561E1C"/>
<path d="M55.9798 93.8875C56.1548 96.2523 56.3297 98.617 56.4172 100.982C56.4172 102.12 56.5046 103.346 56.5921 104.485C56.5921 105.098 56.5921 105.711 56.5921 106.324C56.5921 106.85 56.5921 107.375 56.5921 107.901C56.4172 108.864 55.6299 109.915 54.5803 109.827C53.8806 105.536 53.3558 101.42 52.9184 97.3032L52.4811 93.8C52.4811 93.8 52.831 93.5372 52.831 93.8C53.3558 97.9163 53.7931 102.033 54.3179 106.149L54.7553 109.652C55.5425 109.477 56.0673 108.601 56.2422 107.725C56.3297 107.2 56.2422 106.674 56.2422 106.149C56.2422 105.623 56.2422 105.01 56.2422 104.485C56.2422 102.208 56.0673 99.9307 55.8923 97.6536C55.8923 96.3398 55.7174 95.1137 55.6299 93.8C55.6299 93.5372 55.9798 93.5372 55.9798 93.8V93.8875Z" fill="#561E1C"/>
<path d="M54.5803 109.652C54.4928 112.542 54.3179 115.433 54.143 118.323C54.143 119.111 53.968 119.987 53.968 120.775C53.968 121.038 53.5307 121.038 53.6182 120.775C53.8806 117.885 54.0555 114.995 54.2304 112.105C54.2304 111.316 54.2304 110.44 54.3179 109.652C54.3179 109.39 54.7553 109.39 54.6678 109.652H54.5803Z" fill="#561E1C"/>
<path d="M54.3179 93.1869C54.8976 93.1869 55.3675 92.7164 55.3675 92.1359C55.3675 91.5555 54.8976 91.085 54.3179 91.085C53.7382 91.085 53.2683 91.5555 53.2683 92.1359C53.2683 92.7164 53.7382 93.1869 54.3179 93.1869Z" fill="#561E1C"/>
<path d="M58.4289 58.8549C56.2422 59.8183 53.7931 60.1687 51.344 59.8183C50.6442 59.7307 50.032 59.5556 49.3322 59.3804C49.0698 59.3804 49.1573 58.9425 49.4197 59.0301C51.6064 59.7307 54.0555 59.8183 56.3297 59.2053C56.942 59.0301 57.5542 58.8549 58.1665 58.5922C58.4289 58.5046 58.6039 58.8549 58.3415 58.9425L58.4289 58.8549Z" fill="#A36717"/>
<path d="M55.3675 66.2118C54.4054 68.051 53.5307 69.9778 52.656 71.9046C51.7813 73.8314 51.0816 75.7582 50.2944 77.7726C49.857 78.9111 49.5072 80.0497 49.1573 81.1882C49.1573 81.451 48.7199 81.3634 48.8074 81.1007C49.4197 79.0863 50.1194 77.0719 50.9066 75.1451C51.6939 73.2183 52.4811 71.2039 53.4432 69.3647C53.968 68.3137 54.4929 67.1752 55.0177 66.1242C55.1051 65.949 55.455 66.1242 55.3675 66.2994V66.2118Z" fill="#A36717"/>
<path d="M55.0177 70.4157C53.6182 72.3425 52.4811 74.4444 51.6939 76.7216C51.6939 76.9843 51.2565 76.8091 51.344 76.634C51.9563 74.8824 52.7435 73.1307 53.7931 71.5542C54.0555 71.1163 54.4054 70.6784 54.7553 70.2405C54.9302 70.0654 55.1926 70.2405 55.1051 70.4157H55.0177Z" fill="#A36717"/>
<path d="M56.942 86.268C56.942 87.1438 56.8545 87.932 56.4171 88.7203C56.3297 88.8954 55.9798 88.7203 56.0673 88.5451C56.4171 87.8444 56.5921 87.0562 56.5046 86.268C56.5046 86.0052 56.8545 86.0052 56.8545 86.268H56.942Z" fill="#A36717"/>
<path d="M55.5425 87.4941V88.4575C55.5425 88.4575 55.1926 87.8445 55.1926 87.4941H55.5425Z" fill="#A36717"/>
<path d="M54.143 88.8954V89.596C54.143 89.596 53.7931 89.0705 53.7931 88.8954H54.143Z" fill="#A36717"/>
<path d="M47.7578 86.881C47.7578 86.881 47.5828 87.1438 47.5828 87.4065C47.1455 87.5817 47.233 87.0562 47.4954 86.7059L47.8452 86.881H47.7578Z" fill="#A36717"/>
<path d="M46.1833 87.8444C46.1833 87.8444 46.3583 88.4575 46.4457 88.8078C46.0084 88.6327 45.9209 88.2823 45.8335 87.932H46.1833V87.8444Z" fill="#A36717"/>
<path d="M39.0109 81.1882C38.9235 81.7137 38.836 82.3268 38.7485 82.8523C38.4861 82.1516 38.5736 81.6261 38.7485 81.1006H39.0984L39.0109 81.1882Z" fill="#C2B38C"/>
<path d="M37.2616 80.4V81.3634C37.2616 81.3634 36.9117 80.7504 36.9117 80.4H37.2616Z" fill="#C2B38C"/>
<path d="M37.2616 73.0432C37.4365 73.4811 37.2616 74.0065 36.9991 74.4445L37.2616 73.0432Z" fill="#C2B38C"/>
<path d="M37.7864 65.7739C37.7864 65.7739 37.9613 66.3869 38.0488 66.7373C37.6114 66.5621 37.524 66.2118 37.4365 65.8614H37.7864V65.7739Z" fill="#C2B38C"/>
<path d="M68.1379 72.0797C68.2254 72.6052 68.3129 73.2183 68.4003 73.7438C67.963 73.3059 67.7881 72.6928 67.7006 72.1673H68.0505L68.1379 72.0797Z" fill="#C2B38C"/>
<path d="M66.9134 75.4954C67.0008 76.0209 67.0883 76.634 67.1758 77.1595C66.7384 76.7216 66.5635 76.1085 66.476 75.583H66.8259L66.9134 75.4954Z" fill="#C2B38C"/>
<path d="M63.852 71.0287C63.852 71.0287 64.0269 71.3791 64.1144 71.5542C63.677 71.5542 63.5896 71.4667 63.5021 71.2915L63.852 71.1163V71.0287Z" fill="#C2B38C"/>
<path d="M62.365 64.8981V66.1242C62.365 66.1242 62.0151 65.336 62.0151 64.8981H62.365Z" fill="#C2B38C"/>
<path d="M64.8141 54.3007C64.8141 54.3007 64.6392 54.651 64.5517 54.8261C64.2893 54.4758 64.3768 54.3007 64.4642 54.1255L64.8141 54.3007Z" fill="#C2B38C"/>
<path d="M62.8898 52.3738C62.8898 52.3738 62.7149 52.9869 62.6274 53.3372C62.365 52.8993 62.4525 52.549 62.4525 52.2863H62.8023L62.8898 52.3738Z" fill="#C2B38C"/>
<path d="M87.5559 143.459C87.5559 143.459 87.7309 144.335 87.4684 144.685V143.459H87.5559Z" fill="#C2B38C"/>
<path d="M85.3692 142.846V143.546C85.3692 143.546 85.0193 143.021 85.0193 142.846H85.3692Z" fill="#C2B38C"/>
<path d="M83.9697 136.89C83.9697 136.89 83.7948 137.416 83.7073 137.591C83.4449 137.241 83.5324 136.978 83.5324 136.803H83.8822L83.9697 136.89Z" fill="#C2B38C"/>
<path d="M34.9874 138.905C34.9874 138.905 34.4626 139.868 34.55 140.393C34.0252 139.78 34.2876 139.167 34.725 138.642L34.9874 138.905Z" fill="#C2B38C"/>
<path d="M32.6257 137.065V137.766C32.6257 137.766 32.2758 137.241 32.2758 137.065H32.6257Z" fill="#C2B38C"/>
<path d="M30.9638 138.029C30.9638 138.467 30.7889 138.905 30.3516 139.167L30.9638 138.029Z" fill="#C2B38C"/>
<path d="M28.7771 147.663V148.889C28.7771 148.889 28.4272 148.101 28.4272 147.663H28.7771Z" fill="#C2B38C"/>
<path d="M26.8528 146.612C26.8528 146.612 26.6779 146.962 26.5904 147.137C26.328 146.787 26.4155 146.612 26.5029 146.437L26.8528 146.612Z" fill="#C2B38C"/>
<path d="M32.4508 107.725V108.426C32.4508 108.426 32.1009 107.901 32.1009 107.725H32.4508Z" fill="#C2B38C"/>
<path d="M30.2641 103.346V104.573C30.2641 104.573 29.9142 103.784 29.9142 103.346H30.2641Z" fill="#C2B38C"/>
<path d="M76.2725 102.295C75.0479 102.733 73.9108 102.996 72.6863 103.259C72.4239 103.259 72.3364 102.909 72.5988 102.909C73.8234 102.646 75.0479 102.383 76.185 101.945C76.4474 101.945 76.5349 102.208 76.2725 102.295Z" fill="#C2B38C"/>
<path d="M33.9378 96.6902C32.8007 96.515 31.6636 96.4274 30.5265 96.2523C31.6636 95.9895 32.8007 96.2523 33.9378 96.2523V96.6026V96.6902Z" fill="#C2B38C"/>
<path opacity="0.37" d="M59.6535 45.3673L54.0555 43.966L59.566 47.6444L59.6535 45.3673Z" fill="#561E1C"/>
<path d="M52.0437 37.0471C51.1691 36.2588 50.3818 35.5582 49.4197 34.9451C49.2448 34.77 49.4197 34.5072 49.6821 34.5948C50.5568 35.2954 51.4315 35.9961 52.3061 36.6967C52.4811 36.8719 52.3061 37.1347 52.0437 37.0471Z" fill="#561E1C"/>
<path d="M50.9941 35.9085C50.9941 35.9085 50.4693 36.6967 50.2069 37.1346C50.2069 36.5216 50.3818 36.0837 50.6443 35.6458L50.9941 35.9085Z" fill="#561E1C"/>
<path d="M61.7527 34.8575C61.7527 35.7333 62.1901 36.5216 62.7149 37.1346C62.8898 37.3098 62.9773 37.3974 63.1522 37.5726C63.3272 37.6601 63.5021 37.8353 63.5896 38.0105C63.7645 38.4484 63.3272 38.8863 63.0648 39.149C62.7149 39.4994 62.2775 39.8497 61.8402 40.1124C61.5778 40.2 61.4903 39.8497 61.6653 39.7621C62.1901 39.4994 62.6274 39.149 62.9773 38.7111C63.1522 38.536 63.4146 38.2732 63.2397 38.0105C61.9277 36.7843 61.4903 35.8209 61.4029 34.8575C61.4029 34.5948 61.7527 34.5072 61.7527 34.8575Z" fill="#561E1C"/>
<path d="M57.5543 36.0836C57.5543 36.6091 57.8167 37.047 58.1665 37.047C58.5164 37.047 58.9538 36.6967 59.0412 36.2588C59.0412 35.7333 58.7788 35.2954 58.4289 35.2954C58.0791 35.2954 57.6417 35.6457 57.5543 36.0836Z" fill="black"/>
<path d="M64.4642 37.5725C64.4642 38.098 64.7266 38.5359 65.0765 38.5359C65.4264 38.5359 65.8637 38.1856 65.9512 37.7477C65.9512 37.2222 65.6888 36.7843 65.3389 36.7843C64.989 36.7843 64.5517 37.1346 64.4642 37.5725Z" fill="black"/>
<path d="M65.4264 33.6314V34.3321C66.3011 34.9451 67.1758 35.2955 68.0504 35.6458C67.3507 34.77 66.5635 34.0693 65.6013 33.5438H65.4264V33.6314Z" fill="#561E1C"/>
<path d="M60.1783 30.4785C60.1783 30.4785 60.1783 30.9164 60.1783 31.1791C59.0412 31.5294 58.1665 31.7046 57.2044 31.8798C58.0791 31.1791 59.0412 30.7412 60.0908 30.3909H60.2658L60.1783 30.4785Z" fill="#561E1C"/>
<path d="M68.7502 23.034C66.5635 21.5451 63.9395 20.6693 61.3154 20.4066C60.5282 20.4066 59.8284 20.319 59.0412 20.4066C58.7788 20.4066 58.6913 20.0562 59.0412 20.0562C61.8402 19.9686 64.5517 20.4941 67.0883 21.7203C67.7881 22.0706 68.4878 22.4209 69.1001 22.8588C69.275 23.034 69.1001 23.2968 68.8377 23.2092L68.7502 23.034Z" fill="#A36717"/>
<path d="M65.3389 19.7935C64.2019 19.5308 62.9773 19.4432 61.7527 19.5308C61.4903 19.5308 61.4029 19.1804 61.7527 19.1804C62.9773 19.0928 64.2019 19.1804 65.4264 19.4432C65.6888 19.4432 65.6013 19.8811 65.4264 19.7935H65.3389Z" fill="#A36717"/>
<path d="M91.2296 194.169C89.8301 194.957 88.3431 195.658 87.1186 195.92C85.2817 196.358 82.0454 195.482 79.8587 194.256C79.2464 193.906 78.4592 194.344 78.4592 195.132V196.621L73.2111 197.409L71.9865 188.301C71.6366 185.41 70.8494 182.52 69.6249 179.805C73.4735 179.105 77.4096 179.017 81.4331 179.367C81.6955 181.732 81.4331 184.184 82.3078 186.374C83.3574 189.001 87.4684 190.578 90.7922 191.278C92.1917 191.541 92.5416 193.468 91.2296 194.169Z" fill="#8CA3C4"/>
<mask id="mask1_125_3009" style="mask-type:luminance" maskUnits="userSpaceOnUse" x="69" y="179" width="24" height="19">
<path d="M91.2296 194.169C89.8301 194.957 88.3431 195.658 87.1186 195.92C85.2817 196.358 82.0454 195.482 79.8587 194.256C79.2464 193.906 78.4592 194.344 78.4592 195.132V196.621L73.2111 197.409L71.9865 188.301C71.6366 185.41 70.8494 182.52 69.6249 179.805C73.4735 179.105 77.4096 179.017 81.4331 179.367C81.6955 181.732 81.4331 184.184 82.3078 186.374C83.3574 189.001 87.4684 190.578 90.7922 191.278C92.1917 191.541 92.5416 193.468 91.2296 194.169Z" fill="white"/>
</mask>
<g mask="url(#mask1_125_3009)">
<path d="M71.1993 196.008C73.2111 195.395 75.2228 195.044 77.3221 195.044C77.9344 195.044 78.4592 195.044 79.0715 195.044C79.2464 195.044 79.2464 195.395 79.0715 195.395C77.0597 195.22 75.0479 195.395 73.0361 195.833C72.4239 195.92 71.899 196.095 71.3742 196.271C71.1993 196.271 71.0244 196.008 71.2868 196.008H71.1993Z" fill="#511014"/>
<path d="M72.074 192.154C75.0479 191.278 78.2843 191.366 81.1707 192.592C82.5702 193.118 83.7948 193.906 85.2817 194.169C85.9815 194.256 86.6812 194.256 87.381 194.169C88.0807 193.993 88.693 193.731 89.3053 193.38C90.7048 192.592 92.0168 191.629 93.5912 191.191C93.7662 191.191 93.9411 191.454 93.6787 191.454C90.9672 192.242 88.8679 194.782 85.894 194.607C84.407 194.607 83.095 193.818 81.6955 193.205C80.9958 192.855 80.296 192.592 79.5963 192.417C78.8091 192.242 78.1093 192.067 77.3221 191.979C75.5727 191.804 73.8234 191.979 72.1615 192.505C71.9865 192.505 71.8116 192.242 72.074 192.242V192.154Z" fill="#511014"/>
<path d="M89.6551 189.877C88.6055 190.928 88.0807 192.417 88.2556 193.818C88.2556 193.993 87.9058 194.081 87.9058 193.818C87.8183 192.242 88.3431 190.753 89.3927 189.614C89.5677 189.439 89.8301 189.614 89.6551 189.79V189.877Z" fill="#511014"/>
<path d="M71.4617 189.089C72.9487 189.264 74.2607 190.14 75.1354 191.454C75.2229 191.629 74.9605 191.804 74.873 191.629C74.0858 190.49 72.7737 189.614 71.3742 189.439C71.1993 189.439 71.1993 189.089 71.3742 189.089H71.4617Z" fill="#511014"/>
<path d="M73.6484 177.616C73.9983 180.418 74.6106 183.133 75.3103 185.848C75.3978 186.199 75.5727 186.637 75.9226 186.899C76.4474 187.25 77.2346 186.899 77.497 186.286C77.7594 185.761 77.672 185.06 77.672 184.447C77.3221 181.382 76.9722 178.316 76.6223 175.251L73.6484 177.616Z" fill="#511014"/>
</g>
<path d="M35.7746 201C34.1127 201 32.4508 200.825 31.3137 200.475C29.4769 199.861 27.2027 197.497 25.8907 195.307C25.5408 194.694 24.5786 194.694 24.2288 195.307L23.529 196.621C23.529 196.621 18.4559 194.519 18.5433 194.519L22.1295 186.024C23.2666 183.309 24.0538 180.418 24.4912 177.528C28.1649 178.929 31.6636 180.856 34.8125 183.221C33.8503 185.41 32.2759 187.337 31.926 189.702C31.5761 192.505 34.2002 196.008 36.7368 198.285C37.7864 199.248 37.0866 201 35.6871 201H35.7746Z" fill="#8CA3C4"/>
<mask id="mask2_125_3009" style="mask-type:luminance" maskUnits="userSpaceOnUse" x="18" y="177" width="20" height="24">
<path d="M35.7746 201C34.1127 201 32.4508 200.825 31.3137 200.475C29.4769 199.861 27.2027 197.497 25.8907 195.307C25.5408 194.694 24.5786 194.694 24.2288 195.307L23.529 196.621C23.529 196.621 18.4559 194.519 18.5433 194.519L22.1295 186.024C23.2666 183.309 24.0538 180.418 24.4912 177.528C28.1649 178.929 31.6636 180.856 34.8125 183.221C33.8503 185.41 32.2759 187.337 31.926 189.702C31.5761 192.505 34.2002 196.008 36.7368 198.285C37.7864 199.248 37.0866 201 35.6871 201H35.7746Z" fill="white"/>
</mask>
<g mask="url(#mask2_125_3009)">
<path d="M17.6686 192.329C19.6804 192.767 21.6922 193.556 23.4416 194.607C23.9664 194.869 24.4037 195.22 24.9285 195.57C25.1035 195.658 24.9285 195.92 24.7536 195.833C23.0917 194.694 21.2549 193.731 19.3305 193.118C18.8057 192.942 18.1935 192.767 17.6686 192.68C17.4937 192.68 17.4937 192.329 17.6686 192.329Z" fill="#511014"/>
<path d="M36.6493 196.533C35.2498 196.884 34.0253 197.847 33.413 199.161C33.3255 199.336 32.9756 199.161 33.1506 198.986C33.8503 197.584 35.0749 196.533 36.5618 196.183C36.7368 196.183 36.9117 196.446 36.6493 196.533Z" fill="#511014"/>
<path d="M21.4298 186.461C22.5669 187.425 23.3541 188.826 23.3541 190.315C23.3541 190.49 23.0042 190.578 23.0042 190.315C23.0042 188.914 22.217 187.512 21.1674 186.637C20.9925 186.461 21.1674 186.286 21.3423 186.374L21.4298 186.461Z" fill="#511014"/>
<path d="M29.127 177.791C27.9899 180.331 27.1152 183.046 26.328 185.761C26.2406 186.111 26.1531 186.549 26.328 186.987C26.5904 187.512 27.4651 187.6 27.9899 187.25C28.5147 186.899 28.7771 186.286 29.0395 185.761L32.8007 177.353L29.0395 177.878L29.127 177.791Z" fill="#511014"/>
<path d="M20.4676 189.79C23.6165 190.49 25.6283 193.293 27.7275 195.482C28.7771 196.621 30.0017 197.672 31.4012 198.373C32.8007 199.073 33.8503 200.212 34.9874 201.263C35.5997 201.788 36.212 202.314 36.9117 202.664C37.6115 203.014 38.3987 203.102 39.1859 202.927C39.3608 202.927 39.3608 202.576 39.1859 202.576C38.4861 202.752 37.7864 202.576 37.0866 202.401C36.4744 202.139 35.8621 201.701 35.3373 201.175C34.2002 200.124 33.1506 198.986 31.8385 198.285C31.4887 198.11 31.1388 197.935 30.7889 197.759C30.439 197.584 30.0892 197.322 29.8268 197.059C29.2145 196.621 28.6897 196.095 28.0774 195.482C26.9403 194.344 25.8907 193.118 24.7536 192.067C23.529 190.928 22.1295 189.877 20.4676 189.527C20.2927 189.527 20.2052 189.79 20.4676 189.877V189.79Z" fill="#511014"/>
</g>
<path d="M18.9806 142.758C17.5811 144.247 15.2195 144.597 13.2952 143.809C12.7704 143.546 12.2456 143.284 11.8082 142.846C11.6333 142.671 11.8957 142.32 12.1581 142.495C13.5576 143.809 15.6568 144.072 17.4062 143.284C17.8436 143.021 18.2809 142.758 18.7182 142.408C18.8932 142.233 19.243 142.495 19.0681 142.758H18.9806Z" fill="#A36717"/>
<path d="M24.9285 169.12C24.4037 172.273 22.217 175.076 19.418 176.477C18.6308 176.827 17.7561 177.178 16.8814 177.265C16.619 177.265 16.4441 176.827 16.794 176.827C19.8553 176.39 22.4794 174.288 23.7914 171.485C24.1413 170.697 24.4037 169.908 24.5786 169.033C24.5786 168.77 25.1035 168.858 25.016 169.12H24.9285Z" fill="#A36717"/>
<path d="M17.8436 174.988C17.2313 175.864 16.1817 176.39 15.132 176.302C14.8696 176.302 14.8696 175.864 15.132 175.864C16.0067 175.864 16.9689 175.514 17.4937 174.725L17.931 174.988H17.8436Z" fill="#A36717"/>
<path d="M7.08494 147.488C5.68545 150.203 4.81076 153.18 4.37342 156.246C3.93608 159.311 4.02355 162.376 4.63583 165.442C4.9857 167.106 5.42304 168.77 6.12279 170.434C6.21026 170.697 5.77292 170.784 5.68545 170.522C4.54836 167.631 3.84861 164.566 3.76114 161.413C3.5862 158.26 3.93608 155.195 4.81076 152.129C5.33557 150.465 5.94785 148.801 6.73507 147.225C6.91001 146.962 7.25988 147.225 7.17241 147.488H7.08494Z" fill="#A36717"/>
<path d="M7.52229 153.618C7.08495 157.56 7.34735 161.676 8.48444 165.529C8.83432 166.58 9.18419 167.719 9.62153 168.77C7.60976 165.267 6.82254 161.238 6.82254 157.122C6.82254 155.983 6.82254 154.844 6.99748 153.706C6.99748 153.443 7.52229 153.443 7.43482 153.706H7.52229V153.618Z" fill="#A36717"/>
<path d="M9.27165 154.932C8.8343 157.822 9.18418 160.8 10.1463 163.515C10.4087 164.303 10.7586 165.004 11.196 165.792C11.3709 166.055 10.9335 166.318 10.7586 166.055C9.35912 163.427 8.5719 160.45 8.5719 157.384C8.5719 156.508 8.5719 155.72 8.74684 154.844C8.74684 154.582 9.27165 154.669 9.18418 154.932H9.27165Z" fill="#A36717"/>
<path d="M14.6947 162.464C11.1085 162.552 7.43481 161.15 4.81076 158.61C4.02354 157.91 3.41127 157.122 2.79899 156.246C2.62405 155.983 3.06139 155.808 3.23633 155.983C5.16063 158.873 8.3095 160.975 11.7208 161.676C12.6829 161.851 13.6451 161.939 14.6947 161.939C14.9571 161.939 14.9571 162.376 14.6947 162.376V162.464Z" fill="#A36717"/>
<path d="M12.1581 164.829C9.18418 164.216 6.29772 162.902 3.8486 161.15C3.14885 160.625 2.4491 160.099 1.83682 159.486C1.66189 159.311 1.92429 158.961 2.1867 159.136C4.37341 161.15 6.99746 162.727 9.88392 163.69C10.6711 163.953 11.4584 164.216 12.333 164.391C12.5954 164.391 12.508 164.916 12.2456 164.829H12.1581Z" fill="#A36717"/>
<path d="M10.7586 166.493C8.48443 166.405 6.29772 165.617 4.37341 164.391C3.8486 164.041 3.32379 163.603 2.88645 163.165C2.71151 162.99 2.97391 162.639 3.23632 162.814C4.81075 164.303 6.82253 165.267 9.00924 165.705C9.62152 165.792 10.2338 165.88 10.8461 165.967C11.1085 165.967 11.1085 166.405 10.8461 166.405L10.7586 166.493Z" fill="#A36717"/>
<path d="M10.5837 131.373V142.583C10.5837 142.583 10.1463 142.846 10.1463 142.583V131.373C10.1463 131.373 10.5837 131.11 10.5837 131.373Z" fill="#A36717"/>
<path d="M9.62153 133.825C9.44659 136.54 9.18419 139.255 9.00925 141.97C9.00925 142.758 8.92178 143.546 8.83432 144.247C8.83432 144.51 8.39697 144.51 8.39697 144.247C8.57191 141.532 8.83431 138.817 9.00925 136.102C9.00925 135.314 9.09672 134.526 9.18419 133.825C9.18419 133.562 9.62153 133.562 9.62153 133.825Z" fill="#A36717"/>
<path d="M21.5172 134.438C21.5172 137.591 21.6922 140.656 22.1295 143.722C22.1295 143.984 21.6922 144.159 21.6922 143.809C21.2548 140.656 20.9924 137.503 20.9924 134.35C20.9924 134.088 21.4298 134.088 21.4298 134.35L21.5172 134.438Z" fill="#A36717"/>
<path d="M20.2927 138.204V146.349C20.2927 146.349 19.8553 146.612 19.8553 146.349V138.204C19.8553 138.204 20.2927 137.941 20.2927 138.204Z" fill="#A36717"/>
<path d="M18.3684 114.732C18.106 115.958 17.8436 117.097 17.6686 118.323C17.6686 118.586 17.1438 118.498 17.2313 118.235C17.4937 117.009 17.7561 115.871 17.931 114.644C17.931 114.382 18.4559 114.469 18.3684 114.732Z" fill="#561E1C"/>
<path d="M16.1817 114.732C16.0067 115.871 15.8318 116.922 15.6568 118.06C15.3944 116.834 15.5694 115.695 15.6568 114.644H16.0942L16.1817 114.732Z" fill="#561E1C"/>
<path d="M14.0824 114.382C13.9075 115.52 13.7326 116.571 13.4702 117.71C13.4702 117.973 12.9453 117.885 13.0328 117.622C13.2078 116.484 13.3827 115.433 13.6451 114.294C13.6451 114.031 14.1699 114.119 14.0824 114.382Z" fill="#561E1C"/>
<path d="M19.5055 114.995C17.4937 114.995 15.4819 114.644 13.6451 113.856C13.3827 113.769 13.4701 113.331 13.7325 113.418C15.5694 114.119 17.4937 114.469 19.5055 114.557C19.7679 114.557 19.7679 114.995 19.5055 114.995Z" fill="#561E1C"/>
<path d="M93.1539 70.5909C90.6173 69.8902 88.2557 68.6641 86.069 67.1752C85.4567 66.7373 84.8444 66.2994 84.3196 65.7739C84.0572 65.5987 84.4071 65.2484 84.6695 65.4235C86.5938 67.0876 88.868 68.4889 91.2296 69.4523C91.9294 69.715 92.6291 69.9778 93.3289 70.1529C93.5913 70.1529 93.5038 70.6784 93.2414 70.5909H93.1539Z" fill="#C2B38C"/>
<path d="M77.4971 76.8092C77.9344 79.349 78.1968 81.9765 78.2843 84.6039C78.2843 85.3922 78.2843 86.0928 78.2843 86.8811C78.2843 87.1438 77.8469 87.1438 77.8469 86.8811C77.8469 84.2536 77.7595 81.7137 77.4096 79.1739C77.3221 78.4732 77.2347 77.685 77.0597 76.9843C77.0597 76.7216 77.4096 76.5464 77.4971 76.8967V76.8092Z" fill="#C2B38C"/>
<path d="M76.9722 77.0719C76.6224 79.2615 76.5349 81.451 76.7098 83.6405C76.7098 83.9033 76.2725 83.9033 76.2725 83.6405C76.0975 81.3634 76.2725 79.1739 76.6224 76.8967C76.6224 76.634 77.1472 76.7216 77.0597 76.9843L76.9722 77.0719Z" fill="#C2B38C"/>
<path d="M25.4533 105.974C22.7418 105.098 20.0303 104.397 17.2313 103.784C16.4441 103.609 15.6569 103.434 14.8697 103.259C14.6072 103.259 14.6947 102.733 14.9571 102.821C17.7561 103.346 20.4676 103.959 23.2666 104.748C24.0538 105.01 24.8411 105.186 25.6283 105.448C25.8907 105.448 25.8032 105.974 25.5408 105.886L25.4533 105.974Z" fill="#C2B38C"/>
<path d="M29.3894 93.4497C29.8268 90.647 30.2641 87.8444 30.7889 85.1294C31.3137 82.3268 31.8385 79.5242 32.3633 76.8091C32.8882 74.0065 33.5004 71.2915 34.0252 68.4889C34.6375 65.6863 35.2498 62.9712 35.8621 60.2562C36.3869 57.9791 36.9117 55.6144 38.3112 53.6876C38.4861 53.4248 38.6611 53.2497 38.836 52.9869C39.0109 52.7242 39.3608 53.0745 39.1859 53.3372C37.6114 55.0889 36.9992 57.4536 36.4744 59.7307C35.8621 62.4457 35.2498 65.1608 34.6375 67.8758C34.0252 70.5908 33.5004 73.3059 32.9756 76.1085C32.4508 78.8235 31.926 81.6261 31.4012 84.3412C30.8764 87.0562 30.439 89.8588 30.0017 92.6614C30.0017 93.0117 29.9142 93.3621 29.8268 93.7124C29.8268 93.9751 29.3019 93.8876 29.3894 93.6248V93.4497Z" fill="#C2B38C"/>
<path d="M35.8621 55.6144C36.037 56.6654 36.212 57.7164 36.3869 58.7673C36.3869 59.0301 36.037 59.2052 35.9496 58.8549C35.7746 57.8039 35.5997 56.753 35.4247 55.702C35.4247 55.4392 35.7746 55.2641 35.8621 55.6144Z" fill="#C2B38C"/>
<path d="M25.2784 84.0784C25.3658 84.6915 25.2784 85.3046 25.1034 85.8301C24.841 85.217 24.9285 84.6915 24.841 84.166H25.2784V84.0784Z" fill="#C2B38C"/>
<path d="M23.7914 82.7647C23.529 83.2026 23.3541 83.7281 23.4415 84.3412C22.9167 83.7281 23.0917 83.115 23.4415 82.5895L23.8789 82.8523L23.7914 82.7647Z" fill="#C2B38C"/>
<path d="M24.0538 75.8458C23.9663 76.4588 23.8789 77.0719 23.7914 77.685C23.4415 76.9843 23.529 76.2837 23.6165 75.6706H24.0538V75.8458Z" fill="#C2B38C"/>
<path d="M21.6047 86.7059C21.6047 86.7059 21.4298 87.4065 21.4298 87.7568C21.0799 87.3189 21.1674 86.9686 21.1674 86.6183H21.6047V86.7059Z" fill="#C2B38C"/>
<path d="M86.3314 81.2758C86.0689 81.8889 85.8065 82.5019 85.4567 83.115C85.3692 82.2392 85.6316 81.6261 85.894 81.0131L86.3314 81.2758Z" fill="#C2B38C"/>
<path d="M85.1068 79.4366C85.1068 79.4366 84.8444 80.1372 84.6695 80.4876C84.4071 79.8745 84.582 79.6117 84.6695 79.2614L85.1068 79.5242V79.4366Z" fill="#C2B38C"/>
<path d="M87.206 73.0431C87.0311 73.5686 86.7687 74.0065 86.5938 74.532C86.4188 73.8314 86.5938 73.3059 86.8562 72.868L87.2935 73.1307L87.206 73.0431Z" fill="#C2B38C"/>
<path d="M82.3953 85.9177C82.0454 86.3556 81.8705 86.8811 81.783 87.4941C81.3457 86.8811 81.6081 86.1804 81.958 85.7425L82.3953 86.0052V85.9177Z" fill="#C2B38C"/>
<path d="M61.4903 41.4261C61.4903 41.4261 60.7031 41.251 60.4407 40.9882C60.1783 40.7255 60.0034 40.3752 59.9159 40.0248L61.4903 41.4261Z" fill="#561E1C"/>
<path d="M92.1917 59.2053C91.5795 59.5556 91.1421 59.9935 90.7048 60.519C90.7048 59.6432 91.3171 59.2052 91.9293 58.8549L92.1917 59.2928V59.2053Z" fill="#561E1C"/>
<path d="M56.942 111.054C58.254 114.995 59.566 118.848 60.8781 122.79C62.1026 126.731 63.3272 130.672 64.4643 134.613C65.6014 138.554 66.5635 142.583 67.4382 146.612C68.3129 150.641 69.1001 154.669 69.8873 158.786C70.6745 162.814 71.2868 166.843 71.9865 170.959C72.074 171.485 72.1615 172.01 72.249 172.536C72.249 172.799 71.8991 172.974 71.8116 172.624C71.1119 168.595 70.4121 164.478 69.7124 160.45C69.0126 156.421 68.2254 152.392 67.3507 148.363C66.476 144.335 65.5139 140.306 64.4643 136.365C63.4146 132.336 62.1901 128.395 60.9655 124.454C59.741 120.512 58.4289 116.659 57.1169 112.718C56.942 112.192 56.767 111.754 56.5921 111.229C56.5046 110.966 56.942 110.791 57.0294 111.141L56.942 111.054Z" fill="#561E1C"/>
<path d="M40.4979 149.414C40.6728 150.115 40.6728 150.816 40.5854 151.516C40.2355 150.816 40.148 150.203 40.0605 149.502H40.4979V149.414Z" fill="#561E1C"/>
<path d="M73.2111 145.648C73.386 146.261 73.4735 146.875 73.4735 147.4C72.9487 146.875 72.8612 146.261 72.7737 145.736H73.2111V145.648Z" fill="#561E1C"/>
<path d="M71.4617 142.495C71.0244 143.196 70.9369 142.846 71.0244 142.495H71.4617Z" fill="#561E1C"/>
<path d="M69.1876 137.241C69.1876 137.678 69.1876 138.116 69.3625 138.554C68.7502 138.204 68.7502 137.678 68.7502 137.241H69.1876Z" fill="#561E1C"/>
<path d="M70.4121 146.086C70.4121 146.699 70.4121 147.312 70.5871 147.926C70.5871 148.188 70.2372 148.363 70.1497 148.013C69.9748 147.4 69.8873 146.699 69.9748 146.086H70.4121Z" fill="#561E1C"/>
<path d="M62.1901 144.773C61.7527 145.561 61.6653 145.123 61.7527 144.685H62.1901V144.773Z" fill="#561E1C"/>
<path d="M64.9891 111.229V112.98C64.9891 112.98 64.5517 113.243 64.5517 112.98V111.229C64.5517 111.229 64.9891 110.966 64.9891 111.229Z" fill="#561E1C"/>
<path d="M62.6274 111.316C62.6274 111.316 62.8023 112.192 62.7149 112.718V111.316H62.6274Z" fill="#561E1C"/>
<path d="M76.7098 167.018C76.7098 167.018 76.7973 167.719 76.8848 168.069C76.36 167.807 76.36 167.456 76.2725 167.106H76.7098V167.018Z" fill="#561E1C"/>
<path d="M74.873 166.493C74.873 166.493 75.1354 167.106 75.0479 167.456L74.873 166.493Z" fill="#561E1C"/>
<path d="M45.2212 129.183C44.6089 130.059 44.6089 129.533 44.7838 129.095H45.2212V129.183Z" fill="#561E1C"/>
<path d="M43.2094 129.884V130.847C42.7721 130.497 42.7721 130.234 42.7721 129.884H43.2094Z" fill="#561E1C"/>
<path d="M81.1707 171.397C78.0219 172.01 74.873 172.886 71.8991 174.112C71.0244 174.463 70.2372 174.813 69.3625 175.163C69.1001 175.251 68.8377 174.901 69.1001 174.725C72.074 173.412 75.1354 172.273 78.2843 171.485C79.159 171.222 80.1211 171.047 80.9958 170.872C81.2582 170.872 81.4331 171.222 81.0833 171.31L81.1707 171.397Z" fill="#561E1C"/>
<path d="M35.1623 154.407C33.7628 158.961 32.5383 163.603 31.4886 168.157C31.2262 169.471 30.8764 170.784 30.614 172.098C30.614 172.448 31.0513 172.536 31.1388 172.273C32.1009 167.631 33.3255 162.99 34.55 158.435C34.8999 157.122 35.2498 155.895 35.6871 154.582C35.7746 154.231 35.2498 154.144 35.1623 154.407Z" fill="#561E1C"/>
<path d="M38.4861 174.375C34.8125 173.587 31.2263 172.886 27.5526 172.273C26.503 172.098 25.4533 171.923 24.4037 171.748C24.0538 171.748 23.9664 172.186 24.2288 172.273C27.9025 172.886 31.5761 173.499 35.1623 174.288C36.212 174.463 37.2616 174.726 38.2237 174.901C38.5736 174.901 38.6611 174.463 38.3987 174.375H38.4861Z" fill="#561E1C"/>
<path d="M42.3347 110.09C41.8974 114.82 41.46 119.549 40.9352 124.278C40.4104 129.008 39.7981 133.737 39.0984 138.467C38.7485 141.094 38.3112 143.722 37.8738 146.437C37.8738 146.787 38.3112 146.875 38.3987 146.612C39.1859 141.882 39.8856 137.153 40.4979 132.424C41.1102 127.694 41.7225 122.965 42.1598 118.148C42.4222 115.433 42.6846 112.805 42.947 110.09C42.947 109.74 42.4222 109.74 42.4222 110.09H42.3347Z" fill="#561E1C"/>
<path d="M42.3347 145.736C40.9352 145.736 39.4483 145.736 38.0488 145.473C37.6989 145.473 37.524 145.911 37.8738 145.999C39.3608 146.261 40.8478 146.349 42.3347 146.349C42.6846 146.349 42.6846 145.824 42.3347 145.824V145.736Z" fill="#561E1C"/>
<path d="M41.2851 146.787H38.7485C38.7485 146.787 38.3986 147.312 38.7485 147.312H41.2851C41.2851 147.312 41.635 146.787 41.2851 146.787Z" fill="#561E1C"/>
</g>
<defs>
<clipPath id="clip0_125_3009">
<rect width="104" height="201" fill="white"/>
</clipPath>
</defs>
</svg>
