<svg width="32" height="32" viewBox="0 0 32 32" fill="none" xmlns="http://www.w3.org/2000/svg">
<path fill-rule="evenodd" clip-rule="evenodd" d="M8.04725 24.9863C10.1646 26.8616 12.9494 28 16.0002 28C19.0509 28 21.8358 26.8616 23.9531 24.9863C23.5628 23.5831 20.7593 22.6667 16.0002 22.6667C11.241 22.6667 8.4375 23.5831 8.04725 24.9863ZM6.13417 22.8329C7.63476 20.8507 11.161 20 16.0002 20C20.8394 20 24.3656 20.8507 25.8662 22.8329C27.2117 20.8938 28.0002 18.539 28.0002 16C28.0002 9.37258 22.6276 3.99999 16.0002 3.99999C9.37274 3.99999 4.00016 9.37258 4.00016 16C4.00016 18.539 4.78867 20.8938 6.13417 22.8329ZM16.0002 30.6667C7.89999 30.6667 1.3335 24.1002 1.3335 16C1.3335 7.89982 7.89999 1.33333 16.0002 1.33333C24.1003 1.33333 30.6668 7.89982 30.6668 16C30.6668 24.1002 24.1003 30.6667 16.0002 30.6667ZM10.6668 13.3333C10.6668 10.341 12.7723 7.99999 16.0002 7.99999C19.2191 7.99999 21.3335 10.5621 21.3335 13.6C21.3335 17.9728 18.9576 20 16.0002 20C13.0146 20 10.6668 17.9032 10.6668 13.3333ZM13.3335 13.3333C13.3335 16.359 14.4244 17.3333 16.0002 17.3333C17.5704 17.3333 18.6668 16.3979 18.6668 13.6C18.6668 11.9339 17.621 10.6667 16.0002 10.6667C14.3118 10.6667 13.3335 11.7544 13.3335 13.3333Z" fill="black"/>
</svg>
